<svg xmlns="http://www.w3.org/2000/svg" xmlns:svg="http://www.w3.org/2000/svg" width="362" height="231" version="1.1" viewBox="0 0 362 231"><style>text{font-family:sans-serif;fill:#000}@media (prefers-color-scheme:dark){text{fill:#fff}}.bar-label{fill:#fff}text.chart-title{font-size:12px;font-weight:700}text.chart-subtitle{font-size:7.199999999999999px;font-style:italic}rect.bar,rect.bar.color-default{fill:#444}rect.bar.emphasize-bar{fill:#c33}.bar-label.bar-label-outside-bar.color-1-of-2,.bar-percent-difference.color-1-of-2,.bar.color-1-of-2,.chart-title .color-1-of-2{fill:#933}@media (prefers-color-scheme:dark){.bar-label.bar-label-outside-bar.color-1-of-2,.bar-percent-difference.color-1-of-2,.chart-title .color-1-of-2{fill:#d55}}.bar-label.color-default,.bar-percent-difference.color-default,.chart-title .color-default{fill:#666}.bar-label.bar-label-inside-bar.color-default{fill:#ccc}@media (prefers-color-scheme:dark){.bar-label.color-default,.bar-percent-difference.color-default,.chart-title .color-default{fill:#ccc}}.bar-label,.bar-value,text.group{font-size:8px}.bar-label.emphasize-bar,.bar-value.emphasize-bar{font-weight:700}rect.error-bar{fill:rgba(0,0,0,.35)}@media (prefers-color-scheme:dark){rect.error-bar{fill:rgba(255,255,255,.35)}}</style><text x="195" y="20" class="chart-title" text-anchor="middle">Linux: <tspan class="color-1-of-2">cargo-nextest</tspan> slows down testing</text><text x="195" y="32" class="chart-subtitle" text-anchor="middle">lower is better.</text><text x="57" y="59" class="group" text-anchor="end"><tspan x="57" dy="0em">build+test</tspan><tspan x="57" dy="1.1em">w/o deps</tspan></text><rect width="202.613" height="10" x="60" y="48" class="bar color-default bar-label-inside-bar"/><rect width="4.43" height=".75" x="259.947" y="52.625" class="error-bar color-default bar-label-inside-bar"/><rect width=".75" height="4" x="259.197" y="51" class="error-bar color-default bar-label-inside-bar"/><rect width=".75" height="4" x="264.376" y="51" class="error-bar color-default bar-label-inside-bar"/><text x="63" y="56" class="bar-label color-default bar-label-inside-bar">Default</text><text x="306.778" y="56" class="bar-value color-default bar-label-inside-bar" text-anchor="end">1865ms</text><rect width="205.07" height="10" x="60" y="60" class="bar color-1-of-2 emphasize-bar bar-label-inside-bar"/><rect width="6.631" height=".75" x="261.771" y="64.625" class="error-bar color-1-of-2 emphasize-bar bar-label-inside-bar"/><rect width=".75" height="4" x="261.021" y="63" class="error-bar color-1-of-2 emphasize-bar bar-label-inside-bar"/><rect width=".75" height="4" x="268.403" y="63" class="error-bar color-1-of-2 emphasize-bar bar-label-inside-bar"/><text x="63" y="68" class="bar-label color-1-of-2 emphasize-bar bar-label-inside-bar">cargo-nextest</text><text x="306.778" y="68" class="bar-value color-1-of-2 emphasize-bar bar-label-inside-bar" text-anchor="end">1888ms</text><text x="306.778" y="68" class="bar-value bar-percent-difference color-default" text-anchor="start">(+1.2%)</text><text x="57" y="90" class="group" text-anchor="end"><tspan x="57" dy="0em">build+test</tspan><tspan x="57" dy="1.1em">w/ deps</tspan></text><rect width="218.033" height="10" x="60" y="79" class="bar color-default bar-label-inside-bar"/><rect width="2.669" height=".75" x="277.065" y="83.625" class="error-bar color-default bar-label-inside-bar"/><rect width=".75" height="4" x="276.315" y="82" class="error-bar color-default bar-label-inside-bar"/><rect width=".75" height="4" x="279.734" y="82" class="error-bar color-default bar-label-inside-bar"/><text x="63" y="87" class="bar-label color-default bar-label-inside-bar">Default</text><text x="323" y="87" class="bar-value color-default bar-label-inside-bar" text-anchor="end">2007ms</text><rect width="221.149" height="10" x="60" y="91" class="bar color-1-of-2 emphasize-bar bar-label-inside-bar"/><rect width="6.824" height=".75" x="277.801" y="95.625" class="error-bar color-1-of-2 emphasize-bar bar-label-inside-bar"/><rect width=".75" height="4" x="277.051" y="94" class="error-bar color-1-of-2 emphasize-bar bar-label-inside-bar"/><rect width=".75" height="4" x="284.625" y="94" class="error-bar color-1-of-2 emphasize-bar bar-label-inside-bar"/><text x="63" y="99" class="bar-label color-1-of-2 emphasize-bar bar-label-inside-bar">cargo-nextest</text><text x="323" y="99" class="bar-value color-1-of-2 emphasize-bar bar-label-inside-bar" text-anchor="end">2036ms</text><text x="323" y="99" class="bar-value bar-percent-difference color-default" text-anchor="start">(+1.4%)</text><text x="57" y="121" class="group" text-anchor="end"><tspan x="57" dy="0em">incremental</tspan><tspan x="57" dy="1.1em">diag-types</tspan></text><rect width="98.702" height="10" x="60" y="110" class="bar color-default bar-label-inside-bar"/><rect width=".921" height=".75" x="158.274" y="114.625" class="error-bar color-default bar-label-inside-bar"/><rect width=".75" height="4" x="157.524" y="113" class="error-bar color-default bar-label-inside-bar"/><rect width=".75" height="4" x="159.195" y="113" class="error-bar color-default bar-label-inside-bar"/><text x="63" y="118" class="bar-label color-default bar-label-inside-bar">Default</text><text x="203.636" y="118" class="bar-value color-default bar-label-inside-bar" text-anchor="end">909ms</text><rect width="100.672" height="10" x="60" y="122" class="bar color-1-of-2 emphasize-bar bar-label-inside-bar"/><rect width="6.274" height=".75" x="158.987" y="126.625" class="error-bar color-1-of-2 emphasize-bar bar-label-inside-bar"/><rect width=".75" height="4" x="158.237" y="125" class="error-bar color-1-of-2 emphasize-bar bar-label-inside-bar"/><rect width=".75" height="4" x="165.261" y="125" class="error-bar color-1-of-2 emphasize-bar bar-label-inside-bar"/><text x="63" y="130" class="bar-label color-1-of-2 emphasize-bar bar-label-inside-bar">cargo-nextest</text><text x="203.636" y="130" class="bar-value color-1-of-2 emphasize-bar bar-label-inside-bar" text-anchor="end">927ms</text><text x="203.636" y="130" class="bar-value bar-percent-difference color-default" text-anchor="start">(+2.0%)</text><text x="57" y="152" class="group" text-anchor="end"><tspan x="57" dy="0em">incremental</tspan><tspan x="57" dy="1.1em">lex</tspan></text><rect width="101.083" height="10" x="60" y="141" class="bar color-default bar-label-inside-bar"/><rect width=".558" height=".75" x="160.979" y="145.625" class="error-bar color-default bar-label-inside-bar"/><rect width=".75" height="4" x="160.229" y="144" class="error-bar color-default bar-label-inside-bar"/><rect width=".75" height="4" x="161.537" y="144" class="error-bar color-default bar-label-inside-bar"/><text x="63" y="149" class="bar-label color-default bar-label-inside-bar">Default</text><text x="201.588" y="149" class="bar-value color-default bar-label-inside-bar" text-anchor="end">931ms</text><rect width="101.5" height="10" x="60" y="153" class="bar color-1-of-2 emphasize-bar bar-label-inside-bar"/><rect width="3.172" height=".75" x="160.04" y="157.625" class="error-bar color-1-of-2 emphasize-bar bar-label-inside-bar"/><rect width=".75" height="4" x="159.29" y="156" class="error-bar color-1-of-2 emphasize-bar bar-label-inside-bar"/><rect width=".75" height="4" x="163.213" y="156" class="error-bar color-1-of-2 emphasize-bar bar-label-inside-bar"/><text x="63" y="161" class="bar-label color-1-of-2 emphasize-bar bar-label-inside-bar">cargo-nextest</text><text x="201.588" y="161" class="bar-value color-1-of-2 emphasize-bar bar-label-inside-bar" text-anchor="end">935ms</text><text x="201.588" y="161" class="bar-value bar-percent-difference color-default" text-anchor="start">(+0.4%)</text><text x="57" y="183" class="group" text-anchor="end"><tspan x="57" dy="0em">incremental</tspan><tspan x="57" dy="1.1em">test-utf-8</tspan></text><rect width="34.595" height="10" x="60" y="172" class="bar color-default bar-label-outside-bar"/><rect width=".68" height=".75" x="94.492" y="176.625" class="error-bar color-default bar-label-outside-bar"/><rect width=".75" height="4" x="93.742" y="175" class="error-bar color-default bar-label-outside-bar"/><rect width=".75" height="4" x="95.172" y="175" class="error-bar color-default bar-label-outside-bar"/><text x="177.083" y="180" class="bar-label color-default bar-label-outside-bar">Default</text><text x="135.083" y="180" class="bar-value color-default bar-label-outside-bar" text-anchor="end">319ms</text><rect width="35.9" height="10" x="60" y="184" class="bar color-1-of-2 emphasize-bar bar-label-outside-bar"/><rect width="1.284" height=".75" x="95.424" y="188.625" class="error-bar color-1-of-2 emphasize-bar bar-label-outside-bar"/><rect width=".75" height="4" x="94.674" y="187" class="error-bar color-1-of-2 emphasize-bar bar-label-outside-bar"/><rect width=".75" height="4" x="96.708" y="187" class="error-bar color-1-of-2 emphasize-bar bar-label-outside-bar"/><text x="177.083" y="192" class="bar-label color-1-of-2 emphasize-bar bar-label-outside-bar">cargo-nextest</text><text x="135.083" y="192" class="bar-value color-1-of-2 emphasize-bar bar-label-outside-bar" text-anchor="end">331ms</text><text x="135.083" y="192" class="bar-value bar-percent-difference color-default" text-anchor="start">(+3.8%)</text><text x="57" y="214" class="group" text-anchor="end"><tspan x="57" dy="0em">test only</tspan></text><rect width="14.641" height="10" x="60" y="203" class="bar color-default bar-label-outside-bar"/><rect width="-.375" height=".75" x="74.839" y="207.625" class="error-bar color-default bar-label-outside-bar"/><rect width=".75" height="4" x="74.089" y="206" class="error-bar color-default bar-label-outside-bar"/><rect width=".75" height="4" x="74.463" y="206" class="error-bar color-default bar-label-outside-bar"/><text x="157.937" y="211" class="bar-label color-default bar-label-outside-bar">Default</text><text x="115.937" y="211" class="bar-value color-default bar-label-outside-bar" text-anchor="end">135ms</text><rect width="16.962" height="10" x="60" y="215" class="bar color-1-of-2 emphasize-bar bar-label-outside-bar"/><rect width="1.02" height=".75" x="76.543" y="219.625" class="error-bar color-1-of-2 emphasize-bar bar-label-outside-bar"/><rect width=".75" height="4" x="75.793" y="218" class="error-bar color-1-of-2 emphasize-bar bar-label-outside-bar"/><rect width=".75" height="4" x="77.562" y="218" class="error-bar color-1-of-2 emphasize-bar bar-label-outside-bar"/><text x="157.937" y="223" class="bar-label color-1-of-2 emphasize-bar bar-label-outside-bar">cargo-nextest</text><text x="115.937" y="223" class="bar-value color-1-of-2 emphasize-bar bar-label-outside-bar" text-anchor="end">157ms</text><text x="115.937" y="223" class="bar-value bar-percent-difference color-default" text-anchor="start">(+16%)</text></svg>