<svg xmlns="http://www.w3.org/2000/svg" xmlns:svg="http://www.w3.org/2000/svg" width="362" height="231" version="1.1" viewBox="0 0 362 231"><style>text{font-family:sans-serif;fill:#000}@media (prefers-color-scheme:dark){text{fill:#fff}}.bar-label{fill:#fff}text.chart-title{font-size:12px;font-weight:700}text.chart-subtitle{font-size:7.199999999999999px;font-style:italic}rect.bar,rect.bar.color-default{fill:#444}rect.bar.emphasize-bar{fill:#c33}.bar-label.bar-label-outside-bar.color-1-of-2,.bar-percent-difference.color-1-of-2,.bar.color-1-of-2,.chart-title .color-1-of-2{fill:#933}@media (prefers-color-scheme:dark){.bar-label.bar-label-outside-bar.color-1-of-2,.bar-percent-difference.color-1-of-2,.chart-title .color-1-of-2{fill:#d55}}.bar-label.color-default,.bar-percent-difference.color-default,.chart-title .color-default{fill:#666}.bar-label.bar-label-inside-bar.color-default{fill:#ccc}@media (prefers-color-scheme:dark){.bar-label.color-default,.bar-percent-difference.color-default,.chart-title .color-default{fill:#ccc}}.bar-label,.bar-value,text.group{font-size:8px}.bar-label.emphasize-bar,.bar-value.emphasize-bar{font-weight:700}rect.error-bar{fill:rgba(0,0,0,.35)}@media (prefers-color-scheme:dark){rect.error-bar{fill:rgba(255,255,255,.35)}}</style><text x="195" y="20" class="chart-title" text-anchor="middle">macOS: <tspan class="color-1-of-2">cargo-nextest</tspan> speeds up build+test</text><text x="195" y="32" class="chart-subtitle" text-anchor="middle">lower is better.</text><text x="57" y="59" class="group" text-anchor="end"><tspan x="57" dy="0em">build+test</tspan><tspan x="57" dy="1.1em">w/o deps</tspan></text><rect width="205.97" height="10" x="60" y="48" class="bar color-default bar-label-inside-bar"/><rect width="7.126" height=".75" x="263.331" y="52.625" class="error-bar color-default bar-label-inside-bar"/><rect width=".75" height="4" x="262.581" y="51" class="error-bar color-default bar-label-inside-bar"/><rect width=".75" height="4" x="270.457" y="51" class="error-bar color-default bar-label-inside-bar"/><text x="63" y="56" class="bar-label color-default bar-label-inside-bar">Default</text><text x="308.832" y="56" class="bar-value color-default bar-label-inside-bar" text-anchor="end">2969ms</text><rect width="200.731" height="10" x="60" y="60" class="bar color-1-of-2 emphasize-bar bar-label-inside-bar"/><rect width="11.769" height=".75" x="255.853" y="64.625" class="error-bar color-1-of-2 emphasize-bar bar-label-inside-bar"/><rect width=".75" height="4" x="255.103" y="63" class="error-bar color-1-of-2 emphasize-bar bar-label-inside-bar"/><rect width=".75" height="4" x="267.621" y="63" class="error-bar color-1-of-2 emphasize-bar bar-label-inside-bar"/><text x="63" y="68" class="bar-label color-1-of-2 emphasize-bar bar-label-inside-bar">cargo-nextest</text><text x="308.832" y="68" class="bar-value color-1-of-2 emphasize-bar bar-label-inside-bar" text-anchor="end">2893ms</text><text x="308.832" y="68" class="bar-value bar-percent-difference color-default" text-anchor="start">(-2.5%)</text><text x="57" y="90" class="group" text-anchor="end"><tspan x="57" dy="0em">build+test</tspan><tspan x="57" dy="1.1em">w/ deps</tspan></text><rect width="220.071" height="10" x="60" y="79" class="bar color-default bar-label-inside-bar"/><rect width="9.214" height=".75" x="275.411" y="83.625" class="error-bar color-default bar-label-inside-bar"/><rect width=".75" height="4" x="274.661" y="82" class="error-bar color-default bar-label-inside-bar"/><rect width=".75" height="4" x="284.625" y="82" class="error-bar color-default bar-label-inside-bar"/><text x="63" y="87" class="bar-label color-default bar-label-inside-bar">Default</text><text x="323" y="87" class="bar-value color-default bar-label-inside-bar" text-anchor="end">3172ms</text><rect width="214.025" height="10" x="60" y="91" class="bar color-1-of-2 emphasize-bar bar-label-inside-bar"/><rect width="10.561" height=".75" x="267.858" y="95.625" class="error-bar color-1-of-2 emphasize-bar bar-label-inside-bar"/><rect width=".75" height="4" x="267.108" y="94" class="error-bar color-1-of-2 emphasize-bar bar-label-inside-bar"/><rect width=".75" height="4" x="278.419" y="94" class="error-bar color-1-of-2 emphasize-bar bar-label-inside-bar"/><text x="63" y="99" class="bar-label color-1-of-2 emphasize-bar bar-label-inside-bar">cargo-nextest</text><text x="323" y="99" class="bar-value color-1-of-2 emphasize-bar bar-label-inside-bar" text-anchor="end">3085ms</text><text x="323" y="99" class="bar-value bar-percent-difference color-default" text-anchor="start">(-2.7%)</text><text x="57" y="121" class="group" text-anchor="end"><tspan x="57" dy="0em">incremental</tspan><tspan x="57" dy="1.1em">diag-types</tspan></text><rect width="129.472" height="10" x="60" y="110" class="bar color-default bar-label-inside-bar"/><rect width="4.555" height=".75" x="186.785" y="114.625" class="error-bar color-default bar-label-inside-bar"/><rect width=".75" height="4" x="186.035" y="113" class="error-bar color-default bar-label-inside-bar"/><rect width=".75" height="4" x="191.34" y="113" class="error-bar color-default bar-label-inside-bar"/><text x="63" y="118" class="bar-label color-default bar-label-inside-bar">Default</text><text x="229.715" y="118" class="bar-value color-default bar-label-inside-bar" text-anchor="end">1866ms</text><rect width="122.886" height="10" x="60" y="122" class="bar color-1-of-2 emphasize-bar bar-label-inside-bar"/><rect width="4.399" height=".75" x="180.293" y="126.625" class="error-bar color-1-of-2 emphasize-bar bar-label-inside-bar"/><rect width=".75" height="4" x="179.543" y="125" class="error-bar color-1-of-2 emphasize-bar bar-label-inside-bar"/><rect width=".75" height="4" x="184.691" y="125" class="error-bar color-1-of-2 emphasize-bar bar-label-inside-bar"/><text x="63" y="130" class="bar-label color-1-of-2 emphasize-bar bar-label-inside-bar">cargo-nextest</text><text x="229.715" y="130" class="bar-value color-1-of-2 emphasize-bar bar-label-inside-bar" text-anchor="end">1771ms</text><text x="229.715" y="130" class="bar-value bar-percent-difference color-default" text-anchor="start">(-5.1%)</text><text x="57" y="152" class="group" text-anchor="end"><tspan x="57" dy="0em">incremental</tspan><tspan x="57" dy="1.1em">lex</tspan></text><rect width="132.222" height="10" x="60" y="141" class="bar color-default bar-label-inside-bar"/><rect width="5.869" height=".75" x="189.439" y="145.625" class="error-bar color-default bar-label-inside-bar"/><rect width=".75" height="4" x="188.689" y="144" class="error-bar color-default bar-label-inside-bar"/><rect width=".75" height="4" x="195.308" y="144" class="error-bar color-default bar-label-inside-bar"/><text x="63" y="149" class="bar-label color-default bar-label-inside-bar">Default</text><text x="233.683" y="149" class="bar-value color-default bar-label-inside-bar" text-anchor="end">1906ms</text><rect width="131.604" height="10" x="60" y="153" class="bar color-1-of-2 emphasize-bar bar-label-inside-bar"/><rect width="9.028" height=".75" x="186.274" y="157.625" class="error-bar color-1-of-2 emphasize-bar bar-label-inside-bar"/><rect width=".75" height="4" x="185.524" y="156" class="error-bar color-1-of-2 emphasize-bar bar-label-inside-bar"/><rect width=".75" height="4" x="195.302" y="156" class="error-bar color-1-of-2 emphasize-bar bar-label-inside-bar"/><text x="63" y="161" class="bar-label color-1-of-2 emphasize-bar bar-label-inside-bar">cargo-nextest</text><text x="233.683" y="161" class="bar-value color-1-of-2 emphasize-bar bar-label-inside-bar" text-anchor="end">1897ms</text><text x="233.683" y="161" class="bar-value bar-percent-difference color-default" text-anchor="start">(-0.5%)</text><text x="57" y="183" class="group" text-anchor="end"><tspan x="57" dy="0em">incremental</tspan><tspan x="57" dy="1.1em">test-utf-8</tspan></text><rect width="30.614" height="10" x="60" y="172" class="bar color-default bar-label-outside-bar"/><rect width=".142" height=".75" x="90.431" y="176.625" class="error-bar color-default bar-label-outside-bar"/><rect width=".75" height="4" x="89.681" y="175" class="error-bar color-default bar-label-outside-bar"/><rect width=".75" height="4" x="90.573" y="175" class="error-bar color-default bar-label-outside-bar"/><text x="171.25" y="180" class="bar-label color-default bar-label-outside-bar">Default</text><text x="129.25" y="180" class="bar-value color-default bar-label-outside-bar" text-anchor="end">442ms</text><rect width="30.844" height="10" x="60" y="184" class="bar color-1-of-2 emphasize-bar bar-label-outside-bar"/><rect width=".169" height=".75" x="90.706" y="188.625" class="error-bar color-1-of-2 emphasize-bar bar-label-outside-bar"/><rect width=".75" height="4" x="89.956" y="187" class="error-bar color-1-of-2 emphasize-bar bar-label-outside-bar"/><rect width=".75" height="4" x="90.875" y="187" class="error-bar color-1-of-2 emphasize-bar bar-label-outside-bar"/><text x="171.25" y="192" class="bar-label color-1-of-2 emphasize-bar bar-label-outside-bar">cargo-nextest</text><text x="129.25" y="192" class="bar-value color-1-of-2 emphasize-bar bar-label-outside-bar" text-anchor="end">445ms</text><text x="129.25" y="192" class="bar-value bar-percent-difference color-default" text-anchor="start">(+0.8%)</text><text x="57" y="214" class="group" text-anchor="end"><tspan x="57" dy="0em">test only</tspan></text><rect width="14.249" height="10" x="60" y="203" class="bar color-default bar-label-outside-bar"/><rect width="-.149" height=".75" x="74.41" y="207.625" class="error-bar color-default bar-label-outside-bar"/><rect width=".75" height="4" x="73.66" y="206" class="error-bar color-default bar-label-outside-bar"/><rect width=".75" height="4" x="74.261" y="206" class="error-bar color-default bar-label-outside-bar"/><text x="154.636" y="211" class="bar-label color-default bar-label-outside-bar">Default</text><text x="112.636" y="211" class="bar-value color-default bar-label-outside-bar" text-anchor="end">206ms</text><rect width="12.949" height="10" x="60" y="215" class="bar color-1-of-2 emphasize-bar bar-label-outside-bar"/><rect width="-.186" height=".75" x="73.069" y="219.625" class="error-bar color-1-of-2 emphasize-bar bar-label-outside-bar"/><rect width=".75" height="4" x="72.319" y="218" class="error-bar color-1-of-2 emphasize-bar bar-label-outside-bar"/><rect width=".75" height="4" x="72.883" y="218" class="error-bar color-1-of-2 emphasize-bar bar-label-outside-bar"/><text x="154.636" y="223" class="bar-label color-1-of-2 emphasize-bar bar-label-outside-bar">cargo-nextest</text><text x="112.636" y="223" class="bar-value color-1-of-2 emphasize-bar bar-label-outside-bar" text-anchor="end">187ms</text><text x="112.636" y="223" class="bar-value bar-percent-difference color-default" text-anchor="start">(-9.1%)</text></svg>