<svg xmlns="http://www.w3.org/2000/svg" xmlns:svg="http://www.w3.org/2000/svg" width="362" height="169" version="1.1" viewBox="0 0 362 169"><style>text{font-family:sans-serif;fill:#000}@media (prefers-color-scheme:dark){text{fill:#fff}}.bar-label{fill:#fff}text.chart-title{font-size:12px;font-weight:700}text.chart-subtitle{font-size:7.199999999999999px;font-style:italic}rect.bar{fill:#444}.bar-percent-difference.color-1-of-2,.bar.color-1-of-2,.chart-title .color-1-of-2{fill:#933}@media (prefers-color-scheme:dark){.bar-percent-difference.color-1-of-2,.chart-title .color-1-of-2{fill:#d55}}.bar-percent-difference.color-2-of-2,.bar.color-2-of-2,.chart-title .color-2-of-2{fill:#339}@media (prefers-color-scheme:dark){.bar-percent-difference.color-2-of-2,.chart-title .color-2-of-2{fill:#67d}}.bar-label,.bar-value,text.group{font-size:8px}rect.error-bar{fill:rgba(0,0,0,.35)}@media (prefers-color-scheme:dark){rect.error-bar{fill:rgba(255,255,255,.35)}}</style><text x="195" y="20" class="chart-title" text-anchor="middle">Linux: <tspan class="color-1-of-2">Rust</tspan> sometimes builds faster than <tspan class="color-2-of-2">C++</tspan></text><text x="195" y="32" class="chart-subtitle" text-anchor="middle">lower is better.</text><text x="57" y="59" class="group" text-anchor="end"><tspan x="57" dy="0em">build+test</tspan><tspan x="57" dy="1.1em">w/o deps</tspan></text><rect width="214.891" height="10" x="60" y="48" class="bar color-1-of-2 bar-label-inside-bar"/><rect width="2.885" height=".75" x="273.18" y="52.625" class="error-bar color-1-of-2 bar-label-inside-bar"/><rect width=".75" height="4" x="272.43" y="51" class="error-bar color-1-of-2 bar-label-inside-bar"/><rect width=".75" height="4" x="276.064" y="51" class="error-bar color-1-of-2 bar-label-inside-bar"/><text x="63" y="56" class="bar-label color-1-of-2 bar-label-inside-bar">Rust</text><text x="323" y="56" class="bar-value color-1-of-2 bar-label-inside-bar" text-anchor="end">1847ms</text><rect width="218.068" height="10" x="60" y="60" class="bar color-2-of-2 bar-label-inside-bar"/><rect width="14.093" height=".75" x="270.532" y="64.625" class="error-bar color-2-of-2 bar-label-inside-bar"/><rect width=".75" height="4" x="269.782" y="63" class="error-bar color-2-of-2 bar-label-inside-bar"/><rect width=".75" height="4" x="284.625" y="63" class="error-bar color-2-of-2 bar-label-inside-bar"/><text x="63" y="68" class="bar-label color-2-of-2 bar-label-inside-bar">C++</text><text x="323" y="68" class="bar-value color-2-of-2 bar-label-inside-bar" text-anchor="end">1874ms</text><text x="323" y="68" class="bar-value bar-percent-difference color-1-of-2" text-anchor="start">(+1.5%)</text><text x="57" y="90" class="group" text-anchor="end"><tspan x="57" dy="0em">incremental</tspan><tspan x="57" dy="1.1em">diag-types</tspan></text><rect width="100.701" height="10" x="60" y="79" class="bar color-1-of-2 bar-label-inside-bar"/><rect width="2.316" height=".75" x="160.008" y="83.625" class="error-bar color-1-of-2 bar-label-inside-bar"/><rect width=".75" height="4" x="159.258" y="82" class="error-bar color-1-of-2 bar-label-inside-bar"/><rect width=".75" height="4" x="162.323" y="82" class="error-bar color-1-of-2 bar-label-inside-bar"/><text x="63" y="87" class="bar-label color-1-of-2 bar-label-inside-bar">Rust</text><text x="228.505" y="87" class="bar-value color-1-of-2 bar-label-inside-bar" text-anchor="end">866ms</text><rect width="125.73" height="10" x="60" y="91" class="bar color-2-of-2 bar-label-inside-bar"/><rect width="8.889" height=".75" x="181.241" y="95.625" class="error-bar color-2-of-2 bar-label-inside-bar"/><rect width=".75" height="4" x="180.491" y="94" class="error-bar color-2-of-2 bar-label-inside-bar"/><rect width=".75" height="4" x="190.13" y="94" class="error-bar color-2-of-2 bar-label-inside-bar"/><text x="63" y="99" class="bar-label color-2-of-2 bar-label-inside-bar">C++</text><text x="228.505" y="99" class="bar-value color-2-of-2 bar-label-inside-bar" text-anchor="end">1081ms</text><text x="228.505" y="99" class="bar-value bar-percent-difference color-1-of-2" text-anchor="start">(+25%)</text><text x="57" y="121" class="group" text-anchor="end"><tspan x="57" dy="0em">incremental</tspan><tspan x="57" dy="1.1em">lex</tspan></text><rect width="102.492" height="10" x="60" y="110" class="bar color-1-of-2 bar-label-inside-bar"/><rect width="2.365" height=".75" x="161.451" y="114.625" class="error-bar color-1-of-2 bar-label-inside-bar"/><rect width=".75" height="4" x="160.701" y="113" class="error-bar color-1-of-2 bar-label-inside-bar"/><rect width=".75" height="4" x="163.816" y="113" class="error-bar color-1-of-2 bar-label-inside-bar"/><text x="63" y="118" class="bar-label color-1-of-2 bar-label-inside-bar">Rust</text><text x="202.191" y="118" class="bar-value color-1-of-2 bar-label-inside-bar" text-anchor="end">881ms</text><rect width="58.303" height="10" x="60" y="122" class="bar color-2-of-2 bar-label-inside-bar"/><rect width="2.916" height=".75" x="116.786" y="126.625" class="error-bar color-2-of-2 bar-label-inside-bar"/><rect width=".75" height="4" x="116.036" y="125" class="error-bar color-2-of-2 bar-label-inside-bar"/><rect width=".75" height="4" x="119.702" y="125" class="error-bar color-2-of-2 bar-label-inside-bar"/><text x="63" y="130" class="bar-label color-2-of-2 bar-label-inside-bar">C++</text><text x="202.191" y="130" class="bar-value color-2-of-2 bar-label-inside-bar" text-anchor="end">501ms</text><text x="202.191" y="130" class="bar-value bar-percent-difference color-1-of-2" text-anchor="start">(-43%)</text><text x="57" y="152" class="group" text-anchor="end"><tspan x="57" dy="0em">incremental</tspan><tspan x="57" dy="1.1em">test-utf-8</tspan></text><rect width="33.431" height="10" x="60" y="141" class="bar color-1-of-2 bar-label-inside-bar"/><rect width="1.238" height=".75" x="93.21" y="145.625" class="error-bar color-1-of-2 bar-label-inside-bar"/><rect width=".75" height="4" x="92.46" y="144" class="error-bar color-1-of-2 bar-label-inside-bar"/><rect width=".75" height="4" x="94.448" y="144" class="error-bar color-1-of-2 bar-label-inside-bar"/><text x="63" y="149" class="bar-label color-1-of-2 bar-label-inside-bar">Rust</text><text x="142.116" y="149" class="bar-value color-1-of-2 bar-label-inside-bar" text-anchor="end">288ms</text><rect width="41.604" height="10" x="60" y="153" class="bar color-2-of-2 bar-label-inside-bar"/><rect width="4.211" height=".75" x="99.53" y="157.625" class="error-bar color-2-of-2 bar-label-inside-bar"/><rect width=".75" height="4" x="98.78" y="156" class="error-bar color-2-of-2 bar-label-inside-bar"/><rect width=".75" height="4" x="103.741" y="156" class="error-bar color-2-of-2 bar-label-inside-bar"/><text x="63" y="161" class="bar-label color-2-of-2 bar-label-inside-bar">C++</text><text x="142.116" y="161" class="bar-value color-2-of-2 bar-label-inside-bar" text-anchor="end">358ms</text><text x="142.116" y="161" class="bar-value bar-percent-difference color-1-of-2" text-anchor="start">(+24%)</text></svg>