<svg xmlns="http://www.w3.org/2000/svg" xmlns:svg="http://www.w3.org/2000/svg" width="362" height="354" version="1.1" viewBox="0 0 362 354"><style>text{font-family:sans-serif;fill:#000}@media (prefers-color-scheme:dark){text{fill:#fff}}.bar-label{fill:#fff}text.chart-title{font-size:12px;font-weight:700}text.chart-subtitle{font-size:7.199999999999999px;font-style:italic}rect.bar{fill:#444}.bar-label.bar-label-outside-bar.color-1-of-2,.bar-percent-difference.color-1-of-2,.bar.color-1-of-2,.chart-title .color-1-of-2{fill:#933}@media (prefers-color-scheme:dark){.bar-label.bar-label-outside-bar.color-1-of-2,.bar-percent-difference.color-1-of-2,.chart-title .color-1-of-2{fill:#d55}}.bar-label.bar-label-outside-bar.color-2-of-2,.bar-percent-difference.color-2-of-2,.bar.color-2-of-2,.chart-title .color-2-of-2{fill:#339}@media (prefers-color-scheme:dark){.bar-label.bar-label-outside-bar.color-2-of-2,.bar-percent-difference.color-2-of-2,.chart-title .color-2-of-2{fill:#67d}}.bar-label,.bar-value,text.group{font-size:8px}.bar-label.bar-label-small{font-size:7px}rect.error-bar{fill:rgba(0,0,0,.35)}@media (prefers-color-scheme:dark){rect.error-bar{fill:rgba(255,255,255,.35)}}</style><text x="195" y="20" class="chart-title" text-anchor="middle"><tspan class="color-2-of-2">C++</tspan> incremental builds scale better than <tspan class="color-1-of-2">Rust</tspan></text><text x="195" y="32" class="chart-subtitle" text-anchor="middle">tested on Linux. lower is better.</text><text x="57" y="95" class="group" text-anchor="end"><tspan x="57" dy="0em">incremental</tspan><tspan x="57" dy="1.1em">diag-types</tspan></text><rect width="47.631" height="10" x="60" y="48" class="bar color-1-of-2 bar-label-inside-bar bar-label-small"/><rect width=".7" height=".75" x="107.501" y="52.625" class="error-bar color-1-of-2 bar-label-inside-bar bar-label-small"/><rect width=".75" height="4" x="106.751" y="51" class="error-bar color-1-of-2 bar-label-inside-bar bar-label-small"/><rect width=".75" height="4" x="108.201" y="51" class="error-bar color-1-of-2 bar-label-inside-bar bar-label-small"/><text x="63" y="56" class="bar-label color-1-of-2 bar-label-inside-bar bar-label-small">1x Rust</text><text x="323" y="56" class="bar-value color-1-of-2 bar-label-inside-bar bar-label-small" text-anchor="end">866ms</text><rect width="93.196" height="10" x="60" y="60" class="bar color-1-of-2 bar-label-inside-bar bar-label-small"/><rect width="2.709" height=".75" x="151.802" y="64.625" class="error-bar color-1-of-2 bar-label-inside-bar bar-label-small"/><rect width=".75" height="4" x="151.052" y="63" class="error-bar color-1-of-2 bar-label-inside-bar bar-label-small"/><rect width=".75" height="4" x="154.51" y="63" class="error-bar color-1-of-2 bar-label-inside-bar bar-label-small"/><text x="63" y="68" class="bar-label color-1-of-2 bar-label-inside-bar bar-label-small">8x Rust</text><text x="323" y="68" class="bar-value color-1-of-2 bar-label-inside-bar bar-label-small" text-anchor="end">1694ms</text><text x="323" y="68" class="bar-value bar-percent-difference color-1-of-2" text-anchor="start">(+96%)</text><rect width="155.259" height="10" x="60" y="72" class="bar color-1-of-2 bar-label-inside-bar bar-label-small"/><rect width="3.842" height=".75" x="213.875" y="76.625" class="error-bar color-1-of-2 bar-label-inside-bar bar-label-small"/><rect width=".75" height="4" x="213.125" y="75" class="error-bar color-1-of-2 bar-label-inside-bar bar-label-small"/><rect width=".75" height="4" x="217.717" y="75" class="error-bar color-1-of-2 bar-label-inside-bar bar-label-small"/><text x="63" y="80" class="bar-label color-1-of-2 bar-label-inside-bar bar-label-small">16x Rust</text><text x="323" y="80" class="bar-value color-1-of-2 bar-label-inside-bar bar-label-small" text-anchor="end">2821ms</text><text x="323" y="80" class="bar-value bar-percent-difference color-1-of-2" text-anchor="start">(+226%)</text><rect width="221.416" height="10" x="60" y="84" class="bar color-1-of-2 bar-label-inside-bar bar-label-small"/><rect width="5.699" height=".75" x="278.926" y="88.625" class="error-bar color-1-of-2 bar-label-inside-bar bar-label-small"/><rect width=".75" height="4" x="278.176" y="87" class="error-bar color-1-of-2 bar-label-inside-bar bar-label-small"/><rect width=".75" height="4" x="284.625" y="87" class="error-bar color-1-of-2 bar-label-inside-bar bar-label-small"/><text x="63" y="92" class="bar-label color-1-of-2 bar-label-inside-bar bar-label-small">24x Rust</text><text x="323" y="92" class="bar-value color-1-of-2 bar-label-inside-bar bar-label-small" text-anchor="end">4023ms</text><text x="323" y="92" class="bar-value bar-percent-difference color-1-of-2" text-anchor="start">(+365%)</text><rect width="59.47" height="10" x="60" y="96" class="bar color-2-of-2 bar-label-inside-bar bar-label-small"/><rect width="3.809" height=".75" x="117.544" y="100.625" class="error-bar color-2-of-2 bar-label-inside-bar bar-label-small"/><rect width=".75" height="4" x="116.794" y="99" class="error-bar color-2-of-2 bar-label-inside-bar bar-label-small"/><rect width=".75" height="4" x="121.353" y="99" class="error-bar color-2-of-2 bar-label-inside-bar bar-label-small"/><text x="63" y="104" class="bar-label color-2-of-2 bar-label-inside-bar bar-label-small">1x C++</text><text x="323" y="104" class="bar-value color-2-of-2 bar-label-inside-bar bar-label-small" text-anchor="end">1081ms</text><rect width="80.963" height="10" x="60" y="108" class="bar color-2-of-2 bar-label-inside-bar bar-label-small"/><rect width="2.638" height=".75" x="139.933" y="112.625" class="error-bar color-2-of-2 bar-label-inside-bar bar-label-small"/><rect width=".75" height="4" x="139.183" y="111" class="error-bar color-2-of-2 bar-label-inside-bar bar-label-small"/><rect width=".75" height="4" x="142.57" y="111" class="error-bar color-2-of-2 bar-label-inside-bar bar-label-small"/><text x="63" y="116" class="bar-label color-2-of-2 bar-label-inside-bar bar-label-small">8x C++</text><text x="323" y="116" class="bar-value color-2-of-2 bar-label-inside-bar bar-label-small" text-anchor="end">1471ms</text><text x="323" y="116" class="bar-value bar-percent-difference color-2-of-2" text-anchor="start">(+36%)</text><rect width="115.763" height="10" x="60" y="120" class="bar color-2-of-2 bar-label-inside-bar bar-label-small"/><rect width="5.97" height=".75" x="172.35" y="124.625" class="error-bar color-2-of-2 bar-label-inside-bar bar-label-small"/><rect width=".75" height="4" x="171.6" y="123" class="error-bar color-2-of-2 bar-label-inside-bar bar-label-small"/><rect width=".75" height="4" x="178.319" y="123" class="error-bar color-2-of-2 bar-label-inside-bar bar-label-small"/><text x="63" y="128" class="bar-label color-2-of-2 bar-label-inside-bar bar-label-small">16x C++</text><text x="323" y="128" class="bar-value color-2-of-2 bar-label-inside-bar bar-label-small" text-anchor="end">2104ms</text><text x="323" y="128" class="bar-value bar-percent-difference color-2-of-2" text-anchor="start">(+95%)</text><rect width="151.077" height="10" x="60" y="132" class="bar color-2-of-2 bar-label-inside-bar bar-label-small"/><rect width="2.293" height=".75" x="209.925" y="136.625" class="error-bar color-2-of-2 bar-label-inside-bar bar-label-small"/><rect width=".75" height="4" x="209.175" y="135" class="error-bar color-2-of-2 bar-label-inside-bar bar-label-small"/><rect width=".75" height="4" x="212.218" y="135" class="error-bar color-2-of-2 bar-label-inside-bar bar-label-small"/><text x="63" y="140" class="bar-label color-2-of-2 bar-label-inside-bar bar-label-small">24x C++</text><text x="323" y="140" class="bar-value color-2-of-2 bar-label-inside-bar bar-label-small" text-anchor="end">2745ms</text><text x="323" y="140" class="bar-value bar-percent-difference color-2-of-2" text-anchor="start">(+154%)</text><text x="57" y="198" class="group" text-anchor="end"><tspan x="57" dy="0em">incremental</tspan><tspan x="57" dy="1.1em">lex</tspan></text><rect width="48.478" height="10" x="60" y="151" class="bar color-1-of-2 bar-label-inside-bar bar-label-small"/><rect width=".724" height=".75" x="108.183" y="155.625" class="error-bar color-1-of-2 bar-label-inside-bar bar-label-small"/><rect width=".75" height="4" x="107.433" y="154" class="error-bar color-1-of-2 bar-label-inside-bar bar-label-small"/><rect width=".75" height="4" x="108.907" y="154" class="error-bar color-1-of-2 bar-label-inside-bar bar-label-small"/><text x="63" y="159" class="bar-label color-1-of-2 bar-label-inside-bar bar-label-small">1x Rust</text><text x="298.111" y="159" class="bar-value color-1-of-2 bar-label-inside-bar bar-label-small" text-anchor="end">881ms</text><rect width="87.864" height="10" x="60" y="163" class="bar color-1-of-2 bar-label-inside-bar bar-label-small"/><rect width="2.423" height=".75" x="146.479" y="167.625" class="error-bar color-1-of-2 bar-label-inside-bar bar-label-small"/><rect width=".75" height="4" x="145.729" y="166" class="error-bar color-1-of-2 bar-label-inside-bar bar-label-small"/><rect width=".75" height="4" x="148.902" y="166" class="error-bar color-1-of-2 bar-label-inside-bar bar-label-small"/><text x="63" y="171" class="bar-label color-1-of-2 bar-label-inside-bar bar-label-small">8x Rust</text><text x="298.111" y="171" class="bar-value color-1-of-2 bar-label-inside-bar bar-label-small" text-anchor="end">1597ms</text><text x="298.111" y="171" class="bar-value bar-percent-difference color-1-of-2" text-anchor="start">(+81%)</text><rect width="141.585" height="10" x="60" y="175" class="bar color-1-of-2 bar-label-inside-bar bar-label-small"/><rect width="5.562" height=".75" x="198.585" y="179.625" class="error-bar color-1-of-2 bar-label-inside-bar bar-label-small"/><rect width=".75" height="4" x="197.835" y="178" class="error-bar color-1-of-2 bar-label-inside-bar bar-label-small"/><rect width=".75" height="4" x="204.147" y="178" class="error-bar color-1-of-2 bar-label-inside-bar bar-label-small"/><text x="63" y="183" class="bar-label color-1-of-2 bar-label-inside-bar bar-label-small">16x Rust</text><text x="298.111" y="183" class="bar-value color-1-of-2 bar-label-inside-bar bar-label-small" text-anchor="end">2573ms</text><text x="298.111" y="183" class="bar-value bar-percent-difference color-1-of-2" text-anchor="start">(+192%)</text><rect width="197.876" height="10" x="60" y="187" class="bar color-1-of-2 bar-label-inside-bar bar-label-small"/><rect width="4.075" height=".75" x="255.661" y="191.625" class="error-bar color-1-of-2 bar-label-inside-bar bar-label-small"/><rect width=".75" height="4" x="254.911" y="190" class="error-bar color-1-of-2 bar-label-inside-bar bar-label-small"/><rect width=".75" height="4" x="259.736" y="190" class="error-bar color-1-of-2 bar-label-inside-bar bar-label-small"/><text x="63" y="195" class="bar-label color-1-of-2 bar-label-inside-bar bar-label-small">24x Rust</text><text x="298.111" y="195" class="bar-value color-1-of-2 bar-label-inside-bar bar-label-small" text-anchor="end">3595ms</text><text x="298.111" y="195" class="bar-value bar-percent-difference color-1-of-2" text-anchor="start">(+308%)</text><rect width="27.577" height="10" x="60" y="199" class="bar color-2-of-2 bar-label-inside-bar bar-label-small"/><rect width=".984" height=".75" x="87.057" y="203.625" class="error-bar color-2-of-2 bar-label-inside-bar bar-label-small"/><rect width=".75" height="4" x="86.307" y="202" class="error-bar color-2-of-2 bar-label-inside-bar bar-label-small"/><rect width=".75" height="4" x="88.041" y="202" class="error-bar color-2-of-2 bar-label-inside-bar bar-label-small"/><text x="63" y="207" class="bar-label color-2-of-2 bar-label-inside-bar bar-label-small">1x C++</text><text x="298.111" y="207" class="bar-value color-2-of-2 bar-label-inside-bar bar-label-small" text-anchor="end">501ms</text><rect width="35.902" height="10" x="60" y="211" class="bar color-2-of-2 bar-label-inside-bar bar-label-small"/><rect width="1.495" height=".75" x="95.341" y="215.625" class="error-bar color-2-of-2 bar-label-inside-bar bar-label-small"/><rect width=".75" height="4" x="94.591" y="214" class="error-bar color-2-of-2 bar-label-inside-bar bar-label-small"/><rect width=".75" height="4" x="96.836" y="214" class="error-bar color-2-of-2 bar-label-inside-bar bar-label-small"/><text x="63" y="219" class="bar-label color-2-of-2 bar-label-inside-bar bar-label-small">8x C++</text><text x="298.111" y="219" class="bar-value color-2-of-2 bar-label-inside-bar bar-label-small" text-anchor="end">653ms</text><text x="298.111" y="219" class="bar-value bar-percent-difference color-2-of-2" text-anchor="start">(+30%)</text><rect width="45.832" height="10" x="60" y="223" class="bar color-2-of-2 bar-label-inside-bar bar-label-small"/><rect width=".726" height=".75" x="105.456" y="227.625" class="error-bar color-2-of-2 bar-label-inside-bar bar-label-small"/><rect width=".75" height="4" x="104.706" y="226" class="error-bar color-2-of-2 bar-label-inside-bar bar-label-small"/><rect width=".75" height="4" x="106.182" y="226" class="error-bar color-2-of-2 bar-label-inside-bar bar-label-small"/><text x="63" y="231" class="bar-label color-2-of-2 bar-label-inside-bar bar-label-small">16x C++</text><text x="298.111" y="231" class="bar-value color-2-of-2 bar-label-inside-bar bar-label-small" text-anchor="end">833ms</text><text x="298.111" y="231" class="bar-value bar-percent-difference color-2-of-2" text-anchor="start">(+66%)</text><rect width="55.461" height="10" x="60" y="235" class="bar color-2-of-2 bar-label-inside-bar bar-label-small"/><rect width="2.03" height=".75" x="114.481" y="239.625" class="error-bar color-2-of-2 bar-label-inside-bar bar-label-small"/><rect width=".75" height="4" x="113.731" y="238" class="error-bar color-2-of-2 bar-label-inside-bar bar-label-small"/><rect width=".75" height="4" x="116.511" y="238" class="error-bar color-2-of-2 bar-label-inside-bar bar-label-small"/><text x="63" y="243" class="bar-label color-2-of-2 bar-label-inside-bar bar-label-small">24x C++</text><text x="298.111" y="243" class="bar-value color-2-of-2 bar-label-inside-bar bar-label-small" text-anchor="end">1008ms</text><text x="298.111" y="243" class="bar-value bar-percent-difference color-2-of-2" text-anchor="start">(+101%)</text><text x="57" y="301" class="group" text-anchor="end"><tspan x="57" dy="0em">incremental</tspan><tspan x="57" dy="1.1em">test-utf-8</tspan></text><rect width="15.813" height="10" x="60" y="254" class="bar color-1-of-2 bar-label-outside-bar"/><rect width=".19" height=".75" x="75.906" y="258.625" class="error-bar color-1-of-2 bar-label-outside-bar"/><rect width=".75" height="4" x="75.156" y="257" class="error-bar color-1-of-2 bar-label-outside-bar"/><rect width=".75" height="4" x="76.096" y="257" class="error-bar color-1-of-2 bar-label-outside-bar"/><text x="256.708" y="262" class="bar-label color-1-of-2 bar-label-outside-bar">1x Rust</text><text x="214.708" y="262" class="bar-value color-1-of-2 bar-label-outside-bar" text-anchor="end">288ms</text><rect width="43.054" height="10" x="60" y="266" class="bar color-1-of-2 bar-label-outside-bar"/><rect width="5.085" height=".75" x="102.39" y="270.625" class="error-bar color-1-of-2 bar-label-outside-bar"/><rect width=".75" height="4" x="101.64" y="269" class="error-bar color-1-of-2 bar-label-outside-bar"/><rect width=".75" height="4" x="107.475" y="269" class="error-bar color-1-of-2 bar-label-outside-bar"/><text x="256.708" y="274" class="bar-label color-1-of-2 bar-label-outside-bar">8x Rust</text><text x="214.708" y="274" class="bar-value color-1-of-2 bar-label-outside-bar" text-anchor="end">783ms</text><text x="214.708" y="274" class="bar-value bar-percent-difference color-1-of-2" text-anchor="start">(+172%)</text><rect width="76.765" height="10" x="60" y="278" class="bar color-1-of-2 bar-label-outside-bar"/><rect width=".653" height=".75" x="136.437" y="282.625" class="error-bar color-1-of-2 bar-label-outside-bar"/><rect width=".75" height="4" x="135.687" y="281" class="error-bar color-1-of-2 bar-label-outside-bar"/><rect width=".75" height="4" x="137.09" y="281" class="error-bar color-1-of-2 bar-label-outside-bar"/><text x="256.708" y="286" class="bar-label color-1-of-2 bar-label-outside-bar">16x Rust</text><text x="214.708" y="286" class="bar-value color-1-of-2 bar-label-outside-bar" text-anchor="end">1395ms</text><text x="214.708" y="286" class="bar-value bar-percent-difference color-1-of-2" text-anchor="start">(+385%)</text><rect width="112.288" height="10" x="60" y="290" class="bar color-1-of-2 bar-label-outside-bar"/><rect width="5.243" height=".75" x="171.091" y="294.625" class="error-bar color-1-of-2 bar-label-outside-bar"/><rect width=".75" height="4" x="170.341" y="293" class="error-bar color-1-of-2 bar-label-outside-bar"/><rect width=".75" height="4" x="176.333" y="293" class="error-bar color-1-of-2 bar-label-outside-bar"/><text x="256.708" y="298" class="bar-label color-1-of-2 bar-label-outside-bar">24x Rust</text><text x="214.708" y="298" class="bar-value color-1-of-2 bar-label-outside-bar" text-anchor="end">2040ms</text><text x="214.708" y="298" class="bar-value bar-percent-difference color-1-of-2" text-anchor="start">(+610%)</text><rect width="19.678" height="10" x="60" y="302" class="bar color-2-of-2 bar-label-outside-bar"/><rect width="1.596" height=".75" x="78.895" y="306.625" class="error-bar color-2-of-2 bar-label-outside-bar"/><rect width=".75" height="4" x="78.145" y="305" class="error-bar color-2-of-2 bar-label-outside-bar"/><rect width=".75" height="4" x="80.492" y="305" class="error-bar color-2-of-2 bar-label-outside-bar"/><text x="256.708" y="310" class="bar-label color-2-of-2 bar-label-outside-bar">1x C++</text><text x="214.708" y="310" class="bar-value color-2-of-2 bar-label-outside-bar" text-anchor="end">358ms</text><rect width="27.558" height="10" x="60" y="314" class="bar color-2-of-2 bar-label-outside-bar"/><rect width="2.07" height=".75" x="86.762" y="318.625" class="error-bar color-2-of-2 bar-label-outside-bar"/><rect width=".75" height="4" x="86.012" y="317" class="error-bar color-2-of-2 bar-label-outside-bar"/><rect width=".75" height="4" x="88.832" y="317" class="error-bar color-2-of-2 bar-label-outside-bar"/><text x="256.708" y="322" class="bar-label color-2-of-2 bar-label-outside-bar">8x C++</text><text x="214.708" y="322" class="bar-value color-2-of-2 bar-label-outside-bar" text-anchor="end">501ms</text><text x="214.708" y="322" class="bar-value bar-percent-difference color-2-of-2" text-anchor="start">(+40%)</text><rect width="36.698" height="10" x="60" y="326" class="bar color-2-of-2 bar-label-outside-bar"/><rect width=".395" height=".75" x="96.312" y="330.625" class="error-bar color-2-of-2 bar-label-outside-bar"/><rect width=".75" height="4" x="95.562" y="329" class="error-bar color-2-of-2 bar-label-outside-bar"/><rect width=".75" height="4" x="96.706" y="329" class="error-bar color-2-of-2 bar-label-outside-bar"/><text x="256.708" y="334" class="bar-label color-2-of-2 bar-label-outside-bar">16x C++</text><text x="214.708" y="334" class="bar-value color-2-of-2 bar-label-outside-bar" text-anchor="end">667ms</text><text x="214.708" y="334" class="bar-value bar-percent-difference color-2-of-2" text-anchor="start">(+86%)</text><rect width="45.741" height="10" x="60" y="338" class="bar color-2-of-2 bar-label-outside-bar"/><rect width="1.336" height=".75" x="105.244" y="342.625" class="error-bar color-2-of-2 bar-label-outside-bar"/><rect width=".75" height="4" x="104.494" y="341" class="error-bar color-2-of-2 bar-label-outside-bar"/><rect width=".75" height="4" x="106.58" y="341" class="error-bar color-2-of-2 bar-label-outside-bar"/><text x="256.708" y="346" class="bar-label color-2-of-2 bar-label-outside-bar">24x C++</text><text x="214.708" y="346" class="bar-value color-2-of-2 bar-label-outside-bar" text-anchor="end">831ms</text><text x="214.708" y="346" class="bar-value bar-percent-difference color-2-of-2" text-anchor="start">(+132%)</text></svg>