<svg xmlns="http://www.w3.org/2000/svg" xmlns:svg="http://www.w3.org/2000/svg" width="362" height="361" version="1.1" viewBox="0 0 362 361"><style>text{font-family:sans-serif;fill:#000}@media (prefers-color-scheme:dark){text{fill:#fff}}.bar-label{fill:#fff}text.chart-title{font-size:12px;font-weight:700}text.chart-subtitle{font-size:7.199999999999999px;font-style:italic}rect.bar{fill:#444}.bar-label.bar-label-outside-bar.color-1-of-2,.bar.color-1-of-2,.chart-title .color-1-of-2{fill:#933}@media (prefers-color-scheme:dark){.bar-label.bar-label-outside-bar.color-1-of-2,.chart-title .color-1-of-2{fill:#d55}}.bar-label.bar-label-outside-bar.color-1-of-2.color-alternate-shade,.bar.color-1-of-2.color-alternate-shade{fill:#a52}@media (prefers-color-scheme:dark){.bar-label.bar-label-outside-bar.color-1-of-2.color-alternate-shade{fill:#d73}}.bar-label.bar-label-outside-bar.color-1-of-2.color-alternate-shade-2,.bar.color-1-of-2.color-alternate-shade-2{fill:#915}.bar-label.bar-label-outside-bar.color-2-of-2,.bar.color-2-of-2,.chart-title .color-2-of-2{fill:#339}@media (prefers-color-scheme:dark){.bar-label.bar-label-outside-bar.color-2-of-2,.chart-title .color-2-of-2{fill:#67d}}.bar-label.bar-label-outside-bar.color-2-of-2.color-alternate-shade,.bar.color-2-of-2.color-alternate-shade{fill:#629}@media (prefers-color-scheme:dark){.bar-label.bar-label-outside-bar.color-2-of-2.color-alternate-shade{fill:#73d}}.bar-label.bar-label-outside-bar.color-2-of-2.color-alternate-shade-2,.bar.color-2-of-2.color-alternate-shade-2{fill:#25a}.bar-label,.bar-value,text.group{font-size:8px}.bar-label.bar-label-small{font-size:7px}rect.error-bar{fill:rgba(0,0,0,.35)}@media (prefers-color-scheme:dark){rect.error-bar{fill:rgba(255,255,255,.35)}}</style><text x="195" y="20" class="chart-title" text-anchor="middle">macOS: <tspan class="color-1-of-2">Xcode</tspan> is fastest toolchain</text><text x="195" y="32" class="chart-subtitle" text-anchor="middle">lower is better.</text><text x="57" y="83" class="group" text-anchor="end"><tspan x="57" dy="0em">build+test</tspan><tspan x="57" dy="1.1em">w/o deps</tspan></text><rect width="196.434" height="10" x="60" y="48" class="bar color-1-of-2 bar-label-inside-bar"/><rect width="7.598" height=".75" x="253.32" y="52.625" class="error-bar color-1-of-2 bar-label-inside-bar"/><rect width=".75" height="4" x="252.57" y="51" class="error-bar color-1-of-2 bar-label-inside-bar"/><rect width=".75" height="4" x="260.918" y="51" class="error-bar color-1-of-2 bar-label-inside-bar"/><text x="63" y="56" class="bar-label color-1-of-2 bar-label-inside-bar">Xcode ld64</text><text x="360" y="56" class="bar-value color-1-of-2 bar-label-inside-bar" text-anchor="end">1942ms</text><rect width="199.041" height="10" x="60" y="60" class="bar color-1-of-2 color-alternate-shade bar-label-inside-bar"/><rect width="6.186" height=".75" x="255.191" y="64.625" class="error-bar color-1-of-2 color-alternate-shade bar-label-inside-bar"/><rect width=".75" height="4" x="254.441" y="63" class="error-bar color-1-of-2 color-alternate-shade bar-label-inside-bar"/><rect width=".75" height="4" x="261.377" y="63" class="error-bar color-1-of-2 color-alternate-shade bar-label-inside-bar"/><text x="63" y="68" class="bar-label color-1-of-2 color-alternate-shade bar-label-inside-bar">Xcode lld</text><text x="360" y="68" class="bar-value color-1-of-2 color-alternate-shade bar-label-inside-bar" text-anchor="end">1968ms</text><rect width="196.418" height="10" x="60" y="72" class="bar color-1-of-2 color-alternate-shade-2 bar-label-inside-bar"/><rect width="9.865" height=".75" x="249.148" y="76.625" class="error-bar color-1-of-2 color-alternate-shade-2 bar-label-inside-bar"/><rect width=".75" height="4" x="248.398" y="75" class="error-bar color-1-of-2 color-alternate-shade-2 bar-label-inside-bar"/><rect width=".75" height="4" x="259.013" y="75" class="error-bar color-1-of-2 color-alternate-shade-2 bar-label-inside-bar"/><text x="63" y="80" class="bar-label color-1-of-2 color-alternate-shade-2 bar-label-inside-bar">Xcode zld</text><text x="360" y="80" class="bar-value color-1-of-2 color-alternate-shade-2 bar-label-inside-bar" text-anchor="end">1942ms</text><rect width="248.917" height="10" x="60" y="84" class="bar color-2-of-2 bar-label-inside-bar"/><rect width="8.19" height=".75" x="305.963" y="88.625" class="error-bar color-2-of-2 bar-label-inside-bar"/><rect width=".75" height="4" x="305.213" y="87" class="error-bar color-2-of-2 bar-label-inside-bar"/><rect width=".75" height="4" x="314.152" y="87" class="error-bar color-2-of-2 bar-label-inside-bar"/><text x="63" y="92" class="bar-label color-2-of-2 bar-label-inside-bar">Clang 15 ld64</text><text x="360" y="92" class="bar-value color-2-of-2 bar-label-inside-bar" text-anchor="end">2461ms</text><rect width="236.907" height="10" x="60" y="96" class="bar color-2-of-2 color-alternate-shade bar-label-inside-bar"/><rect width="10.47" height=".75" x="290.044" y="100.625" class="error-bar color-2-of-2 color-alternate-shade bar-label-inside-bar"/><rect width=".75" height="4" x="289.294" y="99" class="error-bar color-2-of-2 color-alternate-shade bar-label-inside-bar"/><rect width=".75" height="4" x="300.514" y="99" class="error-bar color-2-of-2 color-alternate-shade bar-label-inside-bar"/><text x="63" y="104" class="bar-label color-2-of-2 color-alternate-shade bar-label-inside-bar">Clang 15 lld</text><text x="360" y="104" class="bar-value color-2-of-2 color-alternate-shade bar-label-inside-bar" text-anchor="end">2342ms</text><rect width="249.429" height="10" x="60" y="108" class="bar color-2-of-2 color-alternate-shade-2 bar-label-inside-bar"/><rect width="17.155" height=".75" x="304.47" y="112.625" class="error-bar color-2-of-2 color-alternate-shade-2 bar-label-inside-bar"/><rect width=".75" height="4" x="303.72" y="111" class="error-bar color-2-of-2 color-alternate-shade-2 bar-label-inside-bar"/><rect width=".75" height="4" x="321.625" y="111" class="error-bar color-2-of-2 color-alternate-shade-2 bar-label-inside-bar"/><text x="63" y="116" class="bar-label color-2-of-2 color-alternate-shade-2 bar-label-inside-bar">Clang 15 zld</text><text x="360" y="116" class="bar-value color-2-of-2 color-alternate-shade-2 bar-label-inside-bar" text-anchor="end">2466ms</text><text x="57" y="162" class="group" text-anchor="end"><tspan x="57" dy="0em">incremental</tspan><tspan x="57" dy="1.1em">diag-types</tspan></text><rect width="121.163" height="10" x="60" y="127" class="bar color-1-of-2 bar-label-inside-bar"/><rect width="2.111" height=".75" x="180.605" y="131.625" class="error-bar color-1-of-2 bar-label-inside-bar"/><rect width=".75" height="4" x="179.855" y="130" class="error-bar color-1-of-2 bar-label-inside-bar"/><rect width=".75" height="4" x="182.716" y="130" class="error-bar color-1-of-2 bar-label-inside-bar"/><text x="63" y="135" class="bar-label color-1-of-2 bar-label-inside-bar">Xcode ld64</text><text x="248.371" y="135" class="bar-value color-1-of-2 bar-label-inside-bar" text-anchor="end">1198ms</text><rect width="121.365" height="10" x="60" y="139" class="bar color-1-of-2 color-alternate-shade bar-label-inside-bar"/><rect width="2.133" height=".75" x="180.247" y="143.625" class="error-bar color-1-of-2 color-alternate-shade bar-label-inside-bar"/><rect width=".75" height="4" x="179.497" y="142" class="error-bar color-1-of-2 color-alternate-shade bar-label-inside-bar"/><rect width=".75" height="4" x="182.38" y="142" class="error-bar color-1-of-2 color-alternate-shade bar-label-inside-bar"/><text x="63" y="147" class="bar-label color-1-of-2 color-alternate-shade bar-label-inside-bar">Xcode lld</text><text x="248.371" y="147" class="bar-value color-1-of-2 color-alternate-shade bar-label-inside-bar" text-anchor="end">1200ms</text><rect width="122.528" height="10" x="60" y="151" class="bar color-1-of-2 color-alternate-shade-2 bar-label-inside-bar"/><rect width="3.697" height=".75" x="180.933" y="155.625" class="error-bar color-1-of-2 color-alternate-shade-2 bar-label-inside-bar"/><rect width=".75" height="4" x="180.183" y="154" class="error-bar color-1-of-2 color-alternate-shade-2 bar-label-inside-bar"/><rect width=".75" height="4" x="184.629" y="154" class="error-bar color-1-of-2 color-alternate-shade-2 bar-label-inside-bar"/><text x="63" y="159" class="bar-label color-1-of-2 color-alternate-shade-2 bar-label-inside-bar">Xcode zld</text><text x="248.371" y="159" class="bar-value color-1-of-2 color-alternate-shade-2 bar-label-inside-bar" text-anchor="end">1212ms</text><rect width="146.819" height="10" x="60" y="163" class="bar color-2-of-2 bar-label-inside-bar"/><rect width="6.417" height=".75" x="203.579" y="167.625" class="error-bar color-2-of-2 bar-label-inside-bar"/><rect width=".75" height="4" x="202.829" y="166" class="error-bar color-2-of-2 bar-label-inside-bar"/><rect width=".75" height="4" x="209.996" y="166" class="error-bar color-2-of-2 bar-label-inside-bar"/><text x="63" y="171" class="bar-label color-2-of-2 bar-label-inside-bar">Clang 15 ld64</text><text x="248.371" y="171" class="bar-value color-2-of-2 bar-label-inside-bar" text-anchor="end">1452ms</text><rect width="141.088" height="10" x="60" y="175" class="bar color-2-of-2 color-alternate-shade bar-label-inside-bar"/><rect width="1.781" height=".75" x="200.329" y="179.625" class="error-bar color-2-of-2 color-alternate-shade bar-label-inside-bar"/><rect width=".75" height="4" x="199.579" y="178" class="error-bar color-2-of-2 color-alternate-shade bar-label-inside-bar"/><rect width=".75" height="4" x="202.11" y="178" class="error-bar color-2-of-2 color-alternate-shade bar-label-inside-bar"/><text x="63" y="183" class="bar-label color-2-of-2 color-alternate-shade bar-label-inside-bar">Clang 15 lld</text><text x="248.371" y="183" class="bar-value color-2-of-2 color-alternate-shade bar-label-inside-bar" text-anchor="end">1395ms</text><rect width="146.427" height="10" x="60" y="187" class="bar color-2-of-2 color-alternate-shade-2 bar-label-inside-bar"/><rect width="3.394" height=".75" x="204.509" y="191.625" class="error-bar color-2-of-2 color-alternate-shade-2 bar-label-inside-bar"/><rect width=".75" height="4" x="203.759" y="190" class="error-bar color-2-of-2 color-alternate-shade-2 bar-label-inside-bar"/><rect width=".75" height="4" x="207.902" y="190" class="error-bar color-2-of-2 color-alternate-shade-2 bar-label-inside-bar"/><text x="63" y="195" class="bar-label color-2-of-2 color-alternate-shade-2 bar-label-inside-bar">Clang 15 zld</text><text x="248.371" y="195" class="bar-value color-2-of-2 color-alternate-shade-2 bar-label-inside-bar" text-anchor="end">1448ms</text><text x="57" y="241" class="group" text-anchor="end"><tspan x="57" dy="0em">incremental</tspan><tspan x="57" dy="1.1em">lex</tspan></text><rect width="51.878" height="10" x="60" y="206" class="bar color-1-of-2 bar-label-inside-bar bar-label-small"/><rect width="2.658" height=".75" x="110.906" y="210.625" class="error-bar color-1-of-2 bar-label-inside-bar bar-label-small"/><rect width=".75" height="4" x="110.156" y="209" class="error-bar color-1-of-2 bar-label-inside-bar bar-label-small"/><rect width=".75" height="4" x="113.564" y="209" class="error-bar color-1-of-2 bar-label-inside-bar bar-label-small"/><text x="63" y="214" class="bar-label color-1-of-2 bar-label-inside-bar bar-label-small">Xcode ld64</text><text x="156.378" y="214" class="bar-value color-1-of-2 bar-label-inside-bar bar-label-small" text-anchor="end">513ms</text><rect width="50.535" height="10" x="60" y="218" class="bar color-1-of-2 color-alternate-shade bar-label-inside-bar bar-label-small"/><rect width="2.327" height=".75" x="109.83" y="222.625" class="error-bar color-1-of-2 color-alternate-shade bar-label-inside-bar bar-label-small"/><rect width=".75" height="4" x="109.08" y="221" class="error-bar color-1-of-2 color-alternate-shade bar-label-inside-bar bar-label-small"/><rect width=".75" height="4" x="112.157" y="221" class="error-bar color-1-of-2 color-alternate-shade bar-label-inside-bar bar-label-small"/><text x="63" y="226" class="bar-label color-1-of-2 color-alternate-shade bar-label-inside-bar bar-label-small">Xcode lld</text><text x="156.378" y="226" class="bar-value color-1-of-2 color-alternate-shade bar-label-inside-bar bar-label-small" text-anchor="end">500ms</text><rect width="53.505" height="10" x="60" y="230" class="bar color-1-of-2 color-alternate-shade-2 bar-label-inside-bar bar-label-small"/><rect width=".096" height=".75" x="113.613" y="234.625" class="error-bar color-1-of-2 color-alternate-shade-2 bar-label-inside-bar bar-label-small"/><rect width=".75" height="4" x="112.863" y="233" class="error-bar color-1-of-2 color-alternate-shade-2 bar-label-inside-bar bar-label-small"/><rect width=".75" height="4" x="113.709" y="233" class="error-bar color-1-of-2 color-alternate-shade-2 bar-label-inside-bar bar-label-small"/><text x="63" y="238" class="bar-label color-1-of-2 color-alternate-shade-2 bar-label-inside-bar bar-label-small">Xcode zld</text><text x="156.378" y="238" class="bar-value color-1-of-2 color-alternate-shade-2 bar-label-inside-bar bar-label-small" text-anchor="end">529ms</text><rect width="57.341" height="10" x="60" y="242" class="bar color-2-of-2 bar-label-inside-bar bar-label-small"/><rect width=".621" height=".75" x="117.002" y="246.625" class="error-bar color-2-of-2 bar-label-inside-bar bar-label-small"/><rect width=".75" height="4" x="116.252" y="245" class="error-bar color-2-of-2 bar-label-inside-bar bar-label-small"/><rect width=".75" height="4" x="117.623" y="245" class="error-bar color-2-of-2 bar-label-inside-bar bar-label-small"/><text x="63" y="250" class="bar-label color-2-of-2 bar-label-inside-bar bar-label-small">Clang 15 ld64</text><text x="156.378" y="250" class="bar-value color-2-of-2 bar-label-inside-bar bar-label-small" text-anchor="end">567ms</text><rect width="52.339" height="10" x="60" y="254" class="bar color-2-of-2 color-alternate-shade bar-label-inside-bar bar-label-small"/><rect width=".495" height=".75" x="112.423" y="258.625" class="error-bar color-2-of-2 color-alternate-shade bar-label-inside-bar bar-label-small"/><rect width=".75" height="4" x="111.673" y="257" class="error-bar color-2-of-2 color-alternate-shade bar-label-inside-bar bar-label-small"/><rect width=".75" height="4" x="112.917" y="257" class="error-bar color-2-of-2 color-alternate-shade bar-label-inside-bar bar-label-small"/><text x="63" y="262" class="bar-label color-2-of-2 color-alternate-shade bar-label-inside-bar bar-label-small">Clang 15 lld</text><text x="156.378" y="262" class="bar-value color-2-of-2 color-alternate-shade bar-label-inside-bar bar-label-small" text-anchor="end">518ms</text><rect width="57.487" height="10" x="60" y="266" class="bar color-2-of-2 color-alternate-shade-2 bar-label-inside-bar bar-label-small"/><rect width=".61" height=".75" x="117.393" y="270.625" class="error-bar color-2-of-2 color-alternate-shade-2 bar-label-inside-bar bar-label-small"/><rect width=".75" height="4" x="116.643" y="269" class="error-bar color-2-of-2 color-alternate-shade-2 bar-label-inside-bar bar-label-small"/><rect width=".75" height="4" x="118.003" y="269" class="error-bar color-2-of-2 color-alternate-shade-2 bar-label-inside-bar bar-label-small"/><text x="63" y="274" class="bar-label color-2-of-2 color-alternate-shade-2 bar-label-inside-bar bar-label-small">Clang 15 zld</text><text x="156.378" y="274" class="bar-value color-2-of-2 color-alternate-shade-2 bar-label-inside-bar bar-label-small" text-anchor="end">569ms</text><text x="57" y="320" class="group" text-anchor="end"><tspan x="57" dy="0em">incremental</tspan><tspan x="57" dy="1.1em">test-utf-8</tspan></text><rect width="45.562" height="10" x="60" y="285" class="bar color-1-of-2 bar-label-outside-bar"/><rect width=".771" height=".75" x="105.293" y="289.625" class="error-bar color-1-of-2 bar-label-outside-bar"/><rect width=".75" height="4" x="104.543" y="288" class="error-bar color-1-of-2 bar-label-outside-bar"/><rect width=".75" height="4" x="106.064" y="288" class="error-bar color-1-of-2 bar-label-outside-bar"/><text x="158.843" y="293" class="bar-label color-1-of-2 bar-label-outside-bar">Xcode ld64</text><text x="153.843" y="293" class="bar-value color-1-of-2 bar-label-outside-bar" text-anchor="end">451ms</text><rect width="43.788" height="10" x="60" y="297" class="bar color-1-of-2 color-alternate-shade bar-label-outside-bar"/><rect width=".732" height=".75" x="103.592" y="301.625" class="error-bar color-1-of-2 color-alternate-shade bar-label-outside-bar"/><rect width=".75" height="4" x="102.842" y="300" class="error-bar color-1-of-2 color-alternate-shade bar-label-outside-bar"/><rect width=".75" height="4" x="104.324" y="300" class="error-bar color-1-of-2 color-alternate-shade bar-label-outside-bar"/><text x="158.843" y="305" class="bar-label color-1-of-2 color-alternate-shade bar-label-outside-bar">Xcode lld</text><text x="153.843" y="305" class="bar-value color-1-of-2 color-alternate-shade bar-label-outside-bar" text-anchor="end">433ms</text><rect width="48.46" height="10" x="60" y="309" class="bar color-1-of-2 color-alternate-shade-2 bar-label-outside-bar"/><rect width="8.154" height=".75" x="107.314" y="313.625" class="error-bar color-1-of-2 color-alternate-shade-2 bar-label-outside-bar"/><rect width=".75" height="4" x="106.564" y="312" class="error-bar color-1-of-2 color-alternate-shade-2 bar-label-outside-bar"/><rect width=".75" height="4" x="115.468" y="312" class="error-bar color-1-of-2 color-alternate-shade-2 bar-label-outside-bar"/><text x="158.843" y="317" class="bar-label color-1-of-2 color-alternate-shade-2 bar-label-outside-bar">Xcode zld</text><text x="153.843" y="317" class="bar-value color-1-of-2 color-alternate-shade-2 bar-label-outside-bar" text-anchor="end">480ms</text><rect width="49.87" height="10" x="60" y="321" class="bar color-2-of-2 bar-label-outside-bar"/><rect width="1.051" height=".75" x="109.372" y="325.625" class="error-bar color-2-of-2 bar-label-outside-bar"/><rect width=".75" height="4" x="108.622" y="324" class="error-bar color-2-of-2 bar-label-outside-bar"/><rect width=".75" height="4" x="110.424" y="324" class="error-bar color-2-of-2 bar-label-outside-bar"/><text x="158.843" y="329" class="bar-label color-2-of-2 bar-label-outside-bar">Clang 15 ld64</text><text x="153.843" y="329" class="bar-value color-2-of-2 bar-label-outside-bar" text-anchor="end">493ms</text><rect width="47.551" height="10" x="60" y="333" class="bar color-2-of-2 color-alternate-shade bar-label-outside-bar"/><rect width="4.414" height=".75" x="106.713" y="337.625" class="error-bar color-2-of-2 color-alternate-shade bar-label-outside-bar"/><rect width=".75" height="4" x="105.963" y="336" class="error-bar color-2-of-2 color-alternate-shade bar-label-outside-bar"/><rect width=".75" height="4" x="111.127" y="336" class="error-bar color-2-of-2 color-alternate-shade bar-label-outside-bar"/><text x="158.843" y="341" class="bar-label color-2-of-2 color-alternate-shade bar-label-outside-bar">Clang 15 lld</text><text x="153.843" y="341" class="bar-value color-2-of-2 color-alternate-shade bar-label-outside-bar" text-anchor="end">471ms</text><rect width="51.95" height="10" x="60" y="345" class="bar color-2-of-2 color-alternate-shade-2 bar-label-outside-bar"/><rect width=".706" height=".75" x="111.713" y="349.625" class="error-bar color-2-of-2 color-alternate-shade-2 bar-label-outside-bar"/><rect width=".75" height="4" x="110.963" y="348" class="error-bar color-2-of-2 color-alternate-shade-2 bar-label-outside-bar"/><rect width=".75" height="4" x="112.419" y="348" class="error-bar color-2-of-2 color-alternate-shade-2 bar-label-outside-bar"/><text x="158.843" y="353" class="bar-label color-2-of-2 color-alternate-shade-2 bar-label-outside-bar">Clang 15 zld</text><text x="153.843" y="353" class="bar-value color-2-of-2 color-alternate-shade-2 bar-label-outside-bar" text-anchor="end">514ms</text></svg>