<svg xmlns="http://www.w3.org/2000/svg" xmlns:svg="http://www.w3.org/2000/svg" width="362" height="148" version="1.1" viewBox="0 0 362 148"><style>text{font-family:sans-serif;fill:#000}@media (prefers-color-scheme:dark){text{fill:#fff}}.bar-label{fill:#fff}text.chart-title{font-size:12px;font-weight:700}text.chart-subtitle{font-size:7.199999999999999px;font-style:italic}rect.bar{fill:#444}.bar-percent-difference.color-1-of-2,.bar.color-1-of-2,.chart-title .color-1-of-2{fill:#933}@media (prefers-color-scheme:dark){.bar-percent-difference.color-1-of-2,.chart-title .color-1-of-2{fill:#d55}}.bar-percent-difference.color-2-of-2,.bar.color-2-of-2,.chart-title .color-2-of-2{fill:#339}@media (prefers-color-scheme:dark){.bar-percent-difference.color-2-of-2,.chart-title .color-2-of-2{fill:#67d}}.bar-label,.bar-value,text.group{font-size:8px}rect.error-bar{fill:rgba(0,0,0,.35)}@media (prefers-color-scheme:dark){rect.error-bar{fill:rgba(255,255,255,.35)}}</style><text x="195" y="20" class="chart-title" text-anchor="middle"><tspan class="color-2-of-2">C++</tspan> full builds scale better than <tspan class="color-1-of-2">Rust</tspan></text><text x="195" y="32" class="chart-subtitle" text-anchor="middle">tested on Linux. lower is better.</text><text x="57" y="95" class="group" text-anchor="end"><tspan x="57" dy="0em">build+test</tspan><tspan x="57" dy="1.1em">w/o deps</tspan></text><rect width="60.896" height="10" x="60" y="48" class="bar color-1-of-2 bar-label-inside-bar"/><rect width=".28" height=".75" x="120.679" y="52.625" class="error-bar color-1-of-2 bar-label-inside-bar"/><rect width=".75" height="4" x="119.929" y="51" class="error-bar color-1-of-2 bar-label-inside-bar"/><rect width=".75" height="4" x="120.96" y="51" class="error-bar color-1-of-2 bar-label-inside-bar"/><text x="63" y="56" class="bar-label color-1-of-2 bar-label-inside-bar">1x Rust</text><text x="323" y="56" class="bar-value color-1-of-2 bar-label-inside-bar" text-anchor="end">1847ms</text><rect width="104.057" height="10" x="60" y="60" class="bar color-1-of-2 bar-label-inside-bar"/><rect width="1.546" height=".75" x="162.98" y="64.625" class="error-bar color-1-of-2 bar-label-inside-bar"/><rect width=".75" height="4" x="162.23" y="63" class="error-bar color-1-of-2 bar-label-inside-bar"/><rect width=".75" height="4" x="164.526" y="63" class="error-bar color-1-of-2 bar-label-inside-bar"/><text x="63" y="68" class="bar-label color-1-of-2 bar-label-inside-bar">8x Rust</text><text x="323" y="68" class="bar-value color-1-of-2 bar-label-inside-bar" text-anchor="end">3156ms</text><text x="323" y="68" class="bar-value bar-percent-difference color-1-of-2" text-anchor="start">(+71%)</text><rect width="161.605" height="10" x="60" y="72" class="bar color-1-of-2 bar-label-inside-bar"/><rect width="5.465" height=".75" x="219.849" y="76.625" class="error-bar color-1-of-2 bar-label-inside-bar"/><rect width=".75" height="4" x="219.099" y="75" class="error-bar color-1-of-2 bar-label-inside-bar"/><rect width=".75" height="4" x="225.314" y="75" class="error-bar color-1-of-2 bar-label-inside-bar"/><text x="63" y="80" class="bar-label color-1-of-2 bar-label-inside-bar">16x Rust</text><text x="323" y="80" class="bar-value color-1-of-2 bar-label-inside-bar" text-anchor="end">4901ms</text><text x="323" y="80" class="bar-value bar-percent-difference color-1-of-2" text-anchor="start">(+165%)</text><rect width="222.598" height="10" x="60" y="84" class="bar color-1-of-2 bar-label-inside-bar"/><rect width="4.767" height=".75" x="279.858" y="88.625" class="error-bar color-1-of-2 bar-label-inside-bar"/><rect width=".75" height="4" x="279.108" y="87" class="error-bar color-1-of-2 bar-label-inside-bar"/><rect width=".75" height="4" x="284.625" y="87" class="error-bar color-1-of-2 bar-label-inside-bar"/><text x="63" y="92" class="bar-label color-1-of-2 bar-label-inside-bar">24x Rust</text><text x="323" y="92" class="bar-value color-1-of-2 bar-label-inside-bar" text-anchor="end">6750ms</text><text x="323" y="92" class="bar-value bar-percent-difference color-1-of-2" text-anchor="start">(+266%)</text><rect width="61.796" height="10" x="60" y="96" class="bar color-2-of-2 bar-label-inside-bar"/><rect width="3.456" height=".75" x="119.929" y="100.625" class="error-bar color-2-of-2 bar-label-inside-bar"/><rect width=".75" height="4" x="119.179" y="99" class="error-bar color-2-of-2 bar-label-inside-bar"/><rect width=".75" height="4" x="123.385" y="99" class="error-bar color-2-of-2 bar-label-inside-bar"/><text x="63" y="104" class="bar-label color-2-of-2 bar-label-inside-bar">1x C++</text><text x="323" y="104" class="bar-value color-2-of-2 bar-label-inside-bar" text-anchor="end">1874ms</text><rect width="74.584" height="10" x="60" y="108" class="bar color-2-of-2 bar-label-inside-bar"/><rect width="2.069" height=".75" x="133.641" y="112.625" class="error-bar color-2-of-2 bar-label-inside-bar"/><rect width=".75" height="4" x="132.891" y="111" class="error-bar color-2-of-2 bar-label-inside-bar"/><rect width=".75" height="4" x="135.71" y="111" class="error-bar color-2-of-2 bar-label-inside-bar"/><text x="63" y="116" class="bar-label color-2-of-2 bar-label-inside-bar">8x C++</text><text x="323" y="116" class="bar-value color-2-of-2 bar-label-inside-bar" text-anchor="end">2262ms</text><text x="323" y="116" class="bar-value bar-percent-difference color-2-of-2" text-anchor="start">(+21%)</text><rect width="89.934" height="10" x="60" y="120" class="bar color-2-of-2 bar-label-inside-bar"/><rect width="1.889" height=".75" x="149.202" y="124.625" class="error-bar color-2-of-2 bar-label-inside-bar"/><rect width=".75" height="4" x="148.452" y="123" class="error-bar color-2-of-2 bar-label-inside-bar"/><rect width=".75" height="4" x="151.092" y="123" class="error-bar color-2-of-2 bar-label-inside-bar"/><text x="63" y="128" class="bar-label color-2-of-2 bar-label-inside-bar">16x C++</text><text x="323" y="128" class="bar-value color-2-of-2 bar-label-inside-bar" text-anchor="end">2728ms</text><text x="323" y="128" class="bar-value bar-percent-difference color-2-of-2" text-anchor="start">(+46%)</text><rect width="110.234" height="10" x="60" y="132" class="bar color-2-of-2 bar-label-inside-bar"/><rect width="2.485" height=".75" x="169.667" y="136.625" class="error-bar color-2-of-2 bar-label-inside-bar"/><rect width=".75" height="4" x="168.917" y="135" class="error-bar color-2-of-2 bar-label-inside-bar"/><rect width=".75" height="4" x="172.152" y="135" class="error-bar color-2-of-2 bar-label-inside-bar"/><text x="63" y="140" class="bar-label color-2-of-2 bar-label-inside-bar">24x C++</text><text x="323" y="140" class="bar-value color-2-of-2 bar-label-inside-bar" text-anchor="end">3343ms</text><text x="323" y="140" class="bar-value bar-percent-difference color-2-of-2" text-anchor="start">(+78%)</text></svg>