<svg xmlns="http://www.w3.org/2000/svg" xmlns:svg="http://www.w3.org/2000/svg" width="362" height="169" version="1.1" viewBox="0 0 362 169"><style>text{font-family:sans-serif;fill:#000}@media (prefers-color-scheme:dark){text{fill:#fff}}.bar-label{fill:#fff}text.chart-title{font-size:12px;font-weight:700}text.chart-subtitle{font-size:7.199999999999999px;font-style:italic}rect.bar{fill:#444}.bar-percent-difference.color-1-of-2,.bar.color-1-of-2,.chart-title .color-1-of-2{fill:#933}@media (prefers-color-scheme:dark){.bar-percent-difference.color-1-of-2,.chart-title .color-1-of-2{fill:#d55}}.bar-percent-difference.color-2-of-2,.bar.color-2-of-2,.chart-title .color-2-of-2{fill:#339}@media (prefers-color-scheme:dark){.bar-percent-difference.color-2-of-2,.chart-title .color-2-of-2{fill:#67d}}.bar-label,.bar-value,text.group{font-size:8px}rect.error-bar{fill:rgba(0,0,0,.35)}@media (prefers-color-scheme:dark){rect.error-bar{fill:rgba(255,255,255,.35)}}</style><text x="195" y="20" class="chart-title" text-anchor="middle">macOS: <tspan class="color-2-of-2">C++</tspan> usually builds faster than <tspan class="color-1-of-2">Rust</tspan></text><text x="195" y="32" class="chart-subtitle" text-anchor="middle">lower is better.</text><text x="57" y="59" class="group" text-anchor="end"><tspan x="57" dy="0em">build+test</tspan><tspan x="57" dy="1.1em">w/o deps</tspan></text><rect width="217.141" height="10" x="60" y="48" class="bar color-1-of-2 bar-label-inside-bar"/><rect width="12.792" height=".75" x="271.833" y="52.625" class="error-bar color-1-of-2 bar-label-inside-bar"/><rect width=".75" height="4" x="271.083" y="51" class="error-bar color-1-of-2 bar-label-inside-bar"/><rect width=".75" height="4" x="284.625" y="51" class="error-bar color-1-of-2 bar-label-inside-bar"/><text x="63" y="56" class="bar-label color-1-of-2 bar-label-inside-bar">Rust</text><text x="323" y="56" class="bar-value color-1-of-2 bar-label-inside-bar" text-anchor="end">2893ms</text><rect width="145.746" height="10" x="60" y="60" class="bar color-2-of-2 bar-label-inside-bar"/><rect width="5.444" height=".75" x="203.532" y="64.625" class="error-bar color-2-of-2 bar-label-inside-bar"/><rect width=".75" height="4" x="202.782" y="63" class="error-bar color-2-of-2 bar-label-inside-bar"/><rect width=".75" height="4" x="208.976" y="63" class="error-bar color-2-of-2 bar-label-inside-bar"/><text x="63" y="68" class="bar-label color-2-of-2 bar-label-inside-bar">C++</text><text x="323" y="68" class="bar-value color-2-of-2 bar-label-inside-bar" text-anchor="end">1942ms</text><text x="323" y="68" class="bar-value bar-percent-difference color-1-of-2" text-anchor="start">(-33%)</text><text x="57" y="90" class="group" text-anchor="end"><tspan x="57" dy="0em">incremental</tspan><tspan x="57" dy="1.1em">diag-types</tspan></text><rect width="132.932" height="10" x="60" y="79" class="bar color-1-of-2 bar-label-inside-bar"/><rect width="4.82" height=".75" x="190.096" y="83.625" class="error-bar color-1-of-2 bar-label-inside-bar"/><rect width=".75" height="4" x="189.346" y="82" class="error-bar color-1-of-2 bar-label-inside-bar"/><rect width=".75" height="4" x="194.916" y="82" class="error-bar color-1-of-2 bar-label-inside-bar"/><text x="63" y="87" class="bar-label color-1-of-2 bar-label-inside-bar">Rust</text><text x="233.291" y="87" class="bar-value color-1-of-2 bar-label-inside-bar" text-anchor="end">1771ms</text><rect width="89.898" height="10" x="60" y="91" class="bar color-2-of-2 bar-label-inside-bar"/><rect width="1.373" height=".75" x="149.58" y="95.625" class="error-bar color-2-of-2 bar-label-inside-bar"/><rect width=".75" height="4" x="148.83" y="94" class="error-bar color-2-of-2 bar-label-inside-bar"/><rect width=".75" height="4" x="150.953" y="94" class="error-bar color-2-of-2 bar-label-inside-bar"/><text x="63" y="99" class="bar-label color-2-of-2 bar-label-inside-bar">C++</text><text x="233.291" y="99" class="bar-value color-2-of-2 bar-label-inside-bar" text-anchor="end">1198ms</text><text x="233.291" y="99" class="bar-value bar-percent-difference color-1-of-2" text-anchor="start">(-32%)</text><text x="57" y="121" class="group" text-anchor="end"><tspan x="57" dy="0em">incremental</tspan><tspan x="57" dy="1.1em">lex</tspan></text><rect width="142.362" height="10" x="60" y="110" class="bar color-1-of-2 bar-label-inside-bar"/><rect width="9.827" height=".75" x="196.567" y="114.625" class="error-bar color-1-of-2 bar-label-inside-bar"/><rect width=".75" height="4" x="195.817" y="113" class="error-bar color-1-of-2 bar-label-inside-bar"/><rect width=".75" height="4" x="206.394" y="113" class="error-bar color-1-of-2 bar-label-inside-bar"/><text x="63" y="118" class="bar-label color-1-of-2 bar-label-inside-bar">Rust</text><text x="244.769" y="118" class="bar-value color-1-of-2 bar-label-inside-bar" text-anchor="end">1897ms</text><rect width="38.491" height="10" x="60" y="122" class="bar color-2-of-2 bar-label-inside-bar"/><rect width="1.778" height=".75" x="97.867" y="126.625" class="error-bar color-2-of-2 bar-label-inside-bar"/><rect width=".75" height="4" x="97.117" y="125" class="error-bar color-2-of-2 bar-label-inside-bar"/><rect width=".75" height="4" x="99.645" y="125" class="error-bar color-2-of-2 bar-label-inside-bar"/><text x="63" y="130" class="bar-label color-2-of-2 bar-label-inside-bar">C++</text><text x="244.769" y="130" class="bar-value color-2-of-2 bar-label-inside-bar" text-anchor="end">513ms</text><text x="244.769" y="130" class="bar-value bar-percent-difference color-1-of-2" text-anchor="start">(-73%)</text><text x="57" y="152" class="group" text-anchor="end"><tspan x="57" dy="0em">incremental</tspan><tspan x="57" dy="1.1em">test-utf-8</tspan></text><rect width="33.366" height="10" x="60" y="141" class="bar color-1-of-2 bar-label-inside-bar"/><rect width=".244" height=".75" x="93.186" y="145.625" class="error-bar color-1-of-2 bar-label-inside-bar"/><rect width=".75" height="4" x="92.436" y="144" class="error-bar color-1-of-2 bar-label-inside-bar"/><rect width=".75" height="4" x="93.43" y="144" class="error-bar color-1-of-2 bar-label-inside-bar"/><text x="63" y="149" class="bar-label color-1-of-2 bar-label-inside-bar">Rust</text><text x="132.456" y="149" class="bar-value color-1-of-2 bar-label-inside-bar" text-anchor="end">445ms</text><rect width="33.805" height="10" x="60" y="153" class="bar color-2-of-2 bar-label-inside-bar"/><rect width=".378" height=".75" x="93.702" y="157.625" class="error-bar color-2-of-2 bar-label-inside-bar"/><rect width=".75" height="4" x="92.952" y="156" class="error-bar color-2-of-2 bar-label-inside-bar"/><rect width=".75" height="4" x="94.081" y="156" class="error-bar color-2-of-2 bar-label-inside-bar"/><text x="63" y="161" class="bar-label color-2-of-2 bar-label-inside-bar">C++</text><text x="132.456" y="161" class="bar-value color-2-of-2 bar-label-inside-bar" text-anchor="end">451ms</text><text x="132.456" y="161" class="bar-value bar-percent-difference color-1-of-2" text-anchor="start">(+1.3%)</text></svg>