<svg xmlns="http://www.w3.org/2000/svg" xmlns:svg="http://www.w3.org/2000/svg" width="362" height="200" version="1.1" viewBox="0 0 362 200"><style>text{font-family:sans-serif;fill:#000}@media (prefers-color-scheme:dark){text{fill:#fff}}.bar-label{fill:#fff}text.chart-title{font-size:12px;font-weight:700}text.chart-subtitle{font-size:7.199999999999999px;font-style:italic}rect.bar,rect.bar.color-default{fill:#444}rect.bar.emphasize-bar{fill:#c33}.bar-percent-difference.color-1-of-2,.bar.color-1-of-2,.chart-title .color-1-of-2{fill:#933}@media (prefers-color-scheme:dark){.bar-percent-difference.color-1-of-2,.chart-title .color-1-of-2{fill:#d55}}.bar-label.color-default,.bar-percent-difference.color-default,.chart-title .color-default{fill:#666}.bar-label.bar-label-inside-bar.color-default{fill:#ccc}@media (prefers-color-scheme:dark){.bar-label.color-default,.bar-percent-difference.color-default,.chart-title .color-default{fill:#ccc}}.bar-label,.bar-value,text.group{font-size:8px}.bar-label.bar-label-small{font-size:7px}.bar-label.emphasize-bar,.bar-value.emphasize-bar{font-weight:700}rect.error-bar{fill:rgba(0,0,0,.35)}@media (prefers-color-scheme:dark){rect.error-bar{fill:rgba(255,255,255,.35)}}</style><text x="195" y="20" class="chart-title" text-anchor="middle">Rust backend: <tspan class="color-default">LLVM (default)</tspan> beats <tspan class="color-1-of-2">Cranelift</tspan></text><text x="195" y="32" class="chart-subtitle" text-anchor="middle">tested on Linux. lower is better.</text><text x="57" y="59" class="group" text-anchor="end"><tspan x="57" dy="0em">build+test</tspan><tspan x="57" dy="1.1em">w/o deps</tspan></text><rect width="184.485" height="10" x="60" y="48" class="bar color-default bar-label-inside-bar"/><rect width="7.503" height=".75" x="242.867" y="52.625" class="error-bar color-default bar-label-inside-bar"/><rect width=".75" height="4" x="242.117" y="51" class="error-bar color-default bar-label-inside-bar"/><rect width=".75" height="4" x="250.37" y="51" class="error-bar color-default bar-label-inside-bar"/><text x="63" y="56" class="bar-label color-default bar-label-inside-bar">LLVM</text><text x="292.217" y="56" class="bar-value color-default bar-label-inside-bar" text-anchor="end">2017ms</text><rect width="190.689" height="10" x="60" y="60" class="bar emphasize-bar bar-label-inside-bar"/><rect width="5.411" height=".75" x="248.431" y="64.625" class="error-bar emphasize-bar bar-label-inside-bar"/><rect width=".75" height="4" x="247.681" y="63" class="error-bar emphasize-bar bar-label-inside-bar"/><rect width=".75" height="4" x="253.842" y="63" class="error-bar emphasize-bar bar-label-inside-bar"/><text x="63" y="68" class="bar-label emphasize-bar bar-label-inside-bar">Cranelift</text><text x="292.217" y="68" class="bar-value emphasize-bar bar-label-inside-bar" text-anchor="end">2085ms</text><text x="292.217" y="68" class="bar-value bar-percent-difference color-default" text-anchor="start">(+3.4%)</text><text x="57" y="90" class="group" text-anchor="end"><tspan x="57" dy="0em">build+test</tspan><tspan x="57" dy="1.1em">w/ deps</tspan></text><rect width="201.047" height="10" x="60" y="79" class="bar color-default bar-label-inside-bar"/><rect width="11.025" height=".75" x="258.192" y="83.625" class="error-bar color-default bar-label-inside-bar"/><rect width=".75" height="4" x="257.442" y="82" class="error-bar color-default bar-label-inside-bar"/><rect width=".75" height="4" x="269.217" y="82" class="error-bar color-default bar-label-inside-bar"/><text x="63" y="87" class="bar-label color-default bar-label-inside-bar">LLVM</text><text x="323" y="87" class="bar-value color-default bar-label-inside-bar" text-anchor="end">2198ms</text><rect width="218.742" height="10" x="60" y="91" class="bar emphasize-bar bar-label-inside-bar"/><rect width="8.492" height=".75" x="276.133" y="95.625" class="error-bar emphasize-bar bar-label-inside-bar"/><rect width=".75" height="4" x="275.383" y="94" class="error-bar emphasize-bar bar-label-inside-bar"/><rect width=".75" height="4" x="284.625" y="94" class="error-bar emphasize-bar bar-label-inside-bar"/><text x="63" y="99" class="bar-label emphasize-bar bar-label-inside-bar">Cranelift</text><text x="323" y="99" class="bar-value emphasize-bar bar-label-inside-bar" text-anchor="end">2392ms</text><text x="323" y="99" class="bar-value bar-percent-difference color-default" text-anchor="start">(+8.8%)</text><text x="57" y="121" class="group" text-anchor="end"><tspan x="57" dy="0em">incremental</tspan><tspan x="57" dy="1.1em">diag-types</tspan></text><rect width="103.029" height="10" x="60" y="110" class="bar color-default bar-label-inside-bar"/><rect width="2.862" height=".75" x="161.963" y="114.625" class="error-bar color-default bar-label-inside-bar"/><rect width=".75" height="4" x="161.213" y="113" class="error-bar color-default bar-label-inside-bar"/><rect width=".75" height="4" x="164.825" y="113" class="error-bar color-default bar-label-inside-bar"/><text x="63" y="118" class="bar-label color-default bar-label-inside-bar">LLVM</text><text x="228.387" y="118" class="bar-value color-default bar-label-inside-bar" text-anchor="end">1127ms</text><rect width="105.83" height="10" x="60" y="122" class="bar emphasize-bar bar-label-inside-bar"/><rect width="29.102" height=".75" x="160.91" y="126.625" class="error-bar emphasize-bar bar-label-inside-bar"/><rect width=".75" height="4" x="160.16" y="125" class="error-bar emphasize-bar bar-label-inside-bar"/><rect width=".75" height="4" x="190.012" y="125" class="error-bar emphasize-bar bar-label-inside-bar"/><text x="63" y="130" class="bar-label emphasize-bar bar-label-inside-bar">Cranelift</text><text x="228.387" y="130" class="bar-value emphasize-bar bar-label-inside-bar" text-anchor="end">1157ms</text><text x="228.387" y="130" class="bar-value bar-percent-difference color-default" text-anchor="start">(+2.7%)</text><text x="57" y="152" class="group" text-anchor="end"><tspan x="57" dy="0em">incremental</tspan><tspan x="57" dy="1.1em">lex</tspan></text><rect width="93.782" height="10" x="60" y="141" class="bar color-default bar-label-inside-bar"/><rect width="7.876" height=".75" x="151.771" y="145.625" class="error-bar color-default bar-label-inside-bar"/><rect width=".75" height="4" x="151.021" y="144" class="error-bar color-default bar-label-inside-bar"/><rect width=".75" height="4" x="159.647" y="144" class="error-bar color-default bar-label-inside-bar"/><text x="63" y="149" class="bar-label color-default bar-label-inside-bar">LLVM</text><text x="207.594" y="149" class="bar-value color-default bar-label-inside-bar" text-anchor="end">1026ms</text><rect width="107.26" height="10" x="60" y="153" class="bar emphasize-bar bar-label-inside-bar"/><rect width="3.525" height=".75" x="165.694" y="157.625" class="error-bar emphasize-bar bar-label-inside-bar"/><rect width=".75" height="4" x="164.944" y="156" class="error-bar emphasize-bar bar-label-inside-bar"/><rect width=".75" height="4" x="169.219" y="156" class="error-bar emphasize-bar bar-label-inside-bar"/><text x="63" y="161" class="bar-label emphasize-bar bar-label-inside-bar">Cranelift</text><text x="207.594" y="161" class="bar-value emphasize-bar bar-label-inside-bar" text-anchor="end">1173ms</text><text x="207.594" y="161" class="bar-value bar-percent-difference color-default" text-anchor="start">(+14%)</text><text x="57" y="183" class="group" text-anchor="end"><tspan x="57" dy="0em">incremental</tspan><tspan x="57" dy="1.1em">test-utf-8</tspan></text><rect width="31.388" height="10" x="60" y="172" class="bar color-default bar-label-inside-bar bar-label-small"/><rect width="2.253" height=".75" x="90.973" y="176.625" class="error-bar color-default bar-label-inside-bar bar-label-small"/><rect width=".75" height="4" x="90.223" y="175" class="error-bar color-default bar-label-inside-bar bar-label-small"/><rect width=".75" height="4" x="93.227" y="175" class="error-bar color-default bar-label-inside-bar bar-label-small"/><text x="63" y="180" class="bar-label color-default bar-label-inside-bar bar-label-small">LLVM</text><text x="145.058" y="180" class="bar-value color-default bar-label-inside-bar bar-label-small" text-anchor="end">344ms</text><rect width="44.686" height="10" x="60" y="184" class="bar emphasize-bar bar-label-inside-bar bar-label-small"/><rect width="4.199" height=".75" x="102.484" y="188.625" class="error-bar emphasize-bar bar-label-inside-bar bar-label-small"/><rect width=".75" height="4" x="101.734" y="187" class="error-bar emphasize-bar bar-label-inside-bar bar-label-small"/><rect width=".75" height="4" x="106.683" y="187" class="error-bar emphasize-bar bar-label-inside-bar bar-label-small"/><text x="63" y="192" class="bar-label emphasize-bar bar-label-inside-bar bar-label-small">Cranelift</text><text x="145.058" y="192" class="bar-value emphasize-bar bar-label-inside-bar bar-label-small" text-anchor="end">489ms</text><text x="145.058" y="192" class="bar-value bar-percent-difference color-default" text-anchor="start">(+42%)</text></svg>