<svg xmlns="http://www.w3.org/2000/svg" xmlns:svg="http://www.w3.org/2000/svg" width="362" height="260" version="1.1" viewBox="0 0 362 260"><style>text{font-family:sans-serif;fill:#000}@media (prefers-color-scheme:dark){text{fill:#fff}}.bar-label{fill:#fff}text.chart-title{font-size:12px;font-weight:700}text.chart-subtitle{font-size:7.199999999999999px;font-style:italic}rect.bar,rect.bar.color-default{fill:#444}.bar-label.bar-label-outside-bar.color-1-of-2,.bar.color-1-of-2,.chart-title .color-1-of-2{fill:#933}@media (prefers-color-scheme:dark){.bar-label.bar-label-outside-bar.color-1-of-2,.chart-title .color-1-of-2{fill:#d55}}.bar-label.bar-label-outside-bar.color-2-of-2,.bar.color-2-of-2,.chart-title .color-2-of-2{fill:#339}@media (prefers-color-scheme:dark){.bar-label.bar-label-outside-bar.color-2-of-2,.chart-title .color-2-of-2{fill:#67d}}.bar-label.color-default,.chart-title .color-default{fill:#666}.bar-label.bar-label-inside-bar.color-default{fill:#ccc}@media (prefers-color-scheme:dark){.bar-label.color-default,.chart-title .color-default{fill:#ccc}}.bar-label,.bar-value,text.group{font-size:8px}rect.error-bar{fill:rgba(0,0,0,.35)}@media (prefers-color-scheme:dark){rect.error-bar{fill:rgba(255,255,255,.35)}}</style><text x="195" y="20" class="chart-title" text-anchor="middle">macOS: linkers perform about the same</text><text x="195" y="32" class="chart-subtitle" text-anchor="middle">lower is better.</text><text x="57" y="65" class="group" text-anchor="end"><tspan x="57" dy="0em">build+test</tspan><tspan x="57" dy="1.1em">w/o deps</tspan></text><rect width="237.234" height="10" x="60" y="48" class="bar color-default bar-label-inside-bar"/><rect width="10.548" height=".75" x="291.064" y="52.625" class="error-bar color-default bar-label-inside-bar"/><rect width=".75" height="4" x="290.314" y="51" class="error-bar color-default bar-label-inside-bar"/><rect width=".75" height="4" x="301.611" y="51" class="error-bar color-default bar-label-inside-bar"/><text x="63" y="56" class="bar-label color-default bar-label-inside-bar">ld64 (default)</text><text x="360" y="56" class="bar-value color-default bar-label-inside-bar" text-anchor="end">3186ms</text><rect width="235.546" height="10" x="60" y="60" class="bar color-1-of-2 bar-label-inside-bar"/><rect width="14.842" height=".75" x="288.414" y="64.625" class="error-bar color-1-of-2 bar-label-inside-bar"/><rect width=".75" height="4" x="287.664" y="63" class="error-bar color-1-of-2 bar-label-inside-bar"/><rect width=".75" height="4" x="303.255" y="63" class="error-bar color-1-of-2 bar-label-inside-bar"/><text x="63" y="68" class="bar-label color-1-of-2 bar-label-inside-bar">lld</text><text x="360" y="68" class="bar-value color-1-of-2 bar-label-inside-bar" text-anchor="end">3164ms</text><rect width="240.206" height="10" x="60" y="72" class="bar color-2-of-2 bar-label-inside-bar"/><rect width="32.947" height=".75" x="288.678" y="76.625" class="error-bar color-2-of-2 bar-label-inside-bar"/><rect width=".75" height="4" x="287.928" y="75" class="error-bar color-2-of-2 bar-label-inside-bar"/><rect width=".75" height="4" x="321.625" y="75" class="error-bar color-2-of-2 bar-label-inside-bar"/><text x="63" y="80" class="bar-label color-2-of-2 bar-label-inside-bar">zld</text><text x="360" y="80" class="bar-value color-2-of-2 bar-label-inside-bar" text-anchor="end">3226ms</text><text x="57" y="108" class="group" text-anchor="end"><tspan x="57" dy="0em">build+test</tspan><tspan x="57" dy="1.1em">w/ deps</tspan></text><rect width="254.41" height="10" x="60" y="91" class="bar color-default bar-label-inside-bar"/><rect width="11.708" height=".75" x="308.798" y="95.625" class="error-bar color-default bar-label-inside-bar"/><rect width=".75" height="4" x="308.048" y="94" class="error-bar color-default bar-label-inside-bar"/><rect width=".75" height="4" x="320.506" y="94" class="error-bar color-default bar-label-inside-bar"/><text x="63" y="99" class="bar-label color-default bar-label-inside-bar">ld64 (default)</text><text x="358.881" y="99" class="bar-value color-default bar-label-inside-bar" text-anchor="end">3417ms</text><rect width="252.355" height="10" x="60" y="103" class="bar color-1-of-2 bar-label-inside-bar"/><rect width="15.609" height=".75" x="304.627" y="107.625" class="error-bar color-1-of-2 bar-label-inside-bar"/><rect width=".75" height="4" x="303.877" y="106" class="error-bar color-1-of-2 bar-label-inside-bar"/><rect width=".75" height="4" x="320.236" y="106" class="error-bar color-1-of-2 bar-label-inside-bar"/><text x="63" y="111" class="bar-label color-1-of-2 bar-label-inside-bar">lld</text><text x="358.881" y="111" class="bar-value color-1-of-2 bar-label-inside-bar" text-anchor="end">3390ms</text><rect width="251.464" height="10" x="60" y="115" class="bar color-2-of-2 bar-label-inside-bar"/><rect width="10.178" height=".75" x="304.979" y="119.625" class="error-bar color-2-of-2 bar-label-inside-bar"/><rect width=".75" height="4" x="304.229" y="118" class="error-bar color-2-of-2 bar-label-inside-bar"/><rect width=".75" height="4" x="315.157" y="118" class="error-bar color-2-of-2 bar-label-inside-bar"/><text x="63" y="123" class="bar-label color-2-of-2 bar-label-inside-bar">zld</text><text x="358.881" y="123" class="bar-value color-2-of-2 bar-label-inside-bar" text-anchor="end">3378ms</text><text x="57" y="151" class="group" text-anchor="end"><tspan x="57" dy="0em">incremental</tspan><tspan x="57" dy="1.1em">diag-types</tspan></text><rect width="153.264" height="10" x="60" y="134" class="bar color-default bar-label-inside-bar"/><rect width="5.742" height=".75" x="211.102" y="138.625" class="error-bar color-default bar-label-inside-bar"/><rect width=".75" height="4" x="210.352" y="137" class="error-bar color-default bar-label-inside-bar"/><rect width=".75" height="4" x="216.843" y="137" class="error-bar color-default bar-label-inside-bar"/><text x="63" y="142" class="bar-label color-default bar-label-inside-bar">ld64 (default)</text><text x="255.218" y="142" class="bar-value color-default bar-label-inside-bar" text-anchor="end">2059ms</text><rect width="151.833" height="10" x="60" y="146" class="bar color-1-of-2 bar-label-inside-bar"/><rect width="5.57" height=".75" x="209.417" y="150.625" class="error-bar color-1-of-2 bar-label-inside-bar"/><rect width=".75" height="4" x="208.667" y="149" class="error-bar color-1-of-2 bar-label-inside-bar"/><rect width=".75" height="4" x="214.988" y="149" class="error-bar color-1-of-2 bar-label-inside-bar"/><text x="63" y="154" class="bar-label color-1-of-2 bar-label-inside-bar">lld</text><text x="255.218" y="154" class="bar-value color-1-of-2 bar-label-inside-bar" text-anchor="end">2040ms</text><rect width="152.222" height="10" x="60" y="158" class="bar color-2-of-2 bar-label-inside-bar"/><rect width="4.591" height=".75" x="210.237" y="162.625" class="error-bar color-2-of-2 bar-label-inside-bar"/><rect width=".75" height="4" x="209.487" y="161" class="error-bar color-2-of-2 bar-label-inside-bar"/><rect width=".75" height="4" x="214.828" y="161" class="error-bar color-2-of-2 bar-label-inside-bar"/><text x="63" y="166" class="bar-label color-2-of-2 bar-label-inside-bar">zld</text><text x="255.218" y="166" class="bar-value color-2-of-2 bar-label-inside-bar" text-anchor="end">2045ms</text><text x="57" y="194" class="group" text-anchor="end"><tspan x="57" dy="0em">incremental</tspan><tspan x="57" dy="1.1em">lex</tspan></text><rect width="155.604" height="10" x="60" y="177" class="bar color-default bar-label-inside-bar"/><rect width="8.118" height=".75" x="212.199" y="181.625" class="error-bar color-default bar-label-inside-bar"/><rect width=".75" height="4" x="211.449" y="180" class="error-bar color-default bar-label-inside-bar"/><rect width=".75" height="4" x="220.317" y="180" class="error-bar color-default bar-label-inside-bar"/><text x="63" y="185" class="bar-label color-default bar-label-inside-bar">ld64 (default)</text><text x="258.692" y="185" class="bar-value color-default bar-label-inside-bar" text-anchor="end">2090ms</text><rect width="153.851" height="10" x="60" y="189" class="bar color-1-of-2 bar-label-inside-bar"/><rect width="6.75" height=".75" x="212.299" y="193.625" class="error-bar color-1-of-2 bar-label-inside-bar"/><rect width=".75" height="4" x="211.549" y="192" class="error-bar color-1-of-2 bar-label-inside-bar"/><rect width=".75" height="4" x="219.049" y="192" class="error-bar color-1-of-2 bar-label-inside-bar"/><text x="63" y="197" class="bar-label color-1-of-2 bar-label-inside-bar">lld</text><text x="258.692" y="197" class="bar-value color-1-of-2 bar-label-inside-bar" text-anchor="end">2067ms</text><rect width="148.819" height="10" x="60" y="201" class="bar color-2-of-2 bar-label-inside-bar"/><rect width="4.556" height=".75" x="206.456" y="205.625" class="error-bar color-2-of-2 bar-label-inside-bar"/><rect width=".75" height="4" x="205.706" y="204" class="error-bar color-2-of-2 bar-label-inside-bar"/><rect width=".75" height="4" x="211.012" y="204" class="error-bar color-2-of-2 bar-label-inside-bar"/><text x="63" y="209" class="bar-label color-2-of-2 bar-label-inside-bar">zld</text><text x="258.692" y="209" class="bar-value color-2-of-2 bar-label-inside-bar" text-anchor="end">1999ms</text><text x="57" y="237" class="group" text-anchor="end"><tspan x="57" dy="0em">incremental</tspan><tspan x="57" dy="1.1em">test-utf-8</tspan></text><rect width="38.322" height="10" x="60" y="220" class="bar color-default bar-label-outside-bar"/><rect width="1.252" height=".75" x="97.963" y="224.625" class="error-bar color-default bar-label-outside-bar"/><rect width=".75" height="4" x="97.213" y="223" class="error-bar color-default bar-label-outside-bar"/><rect width=".75" height="4" x="99.215" y="223" class="error-bar color-default bar-label-outside-bar"/><text x="142.59" y="228" class="bar-label color-default bar-label-outside-bar">ld64 (default)</text><text x="137.59" y="228" class="bar-value color-default bar-label-outside-bar" text-anchor="end">515ms</text><rect width="38.02" height="10" x="60" y="232" class="bar color-1-of-2 bar-label-outside-bar"/><rect width=".635" height=".75" x="97.865" y="236.625" class="error-bar color-1-of-2 bar-label-outside-bar"/><rect width=".75" height="4" x="97.115" y="235" class="error-bar color-1-of-2 bar-label-outside-bar"/><rect width=".75" height="4" x="98.5" y="235" class="error-bar color-1-of-2 bar-label-outside-bar"/><text x="142.59" y="240" class="bar-label color-1-of-2 bar-label-outside-bar">lld</text><text x="137.59" y="240" class="bar-value color-1-of-2 bar-label-outside-bar" text-anchor="end">511ms</text><rect width="35.976" height="10" x="60" y="244" class="bar color-2-of-2 bar-label-outside-bar"/><rect width="-.142" height=".75" x="96.04" y="248.625" class="error-bar color-2-of-2 bar-label-outside-bar"/><rect width=".75" height="4" x="95.29" y="247" class="error-bar color-2-of-2 bar-label-outside-bar"/><rect width=".75" height="4" x="95.899" y="247" class="error-bar color-2-of-2 bar-label-outside-bar"/><text x="142.59" y="252" class="bar-label color-2-of-2 bar-label-outside-bar">zld</text><text x="137.59" y="252" class="bar-value color-2-of-2 bar-label-outside-bar" text-anchor="end">484ms</text></svg>