<svg xmlns="http://www.w3.org/2000/svg" xmlns:svg="http://www.w3.org/2000/svg" width="362" height="179" version="1.1" viewBox="0 0 362 179"><style>text{font-family:sans-serif;fill:#000}@media (prefers-color-scheme:dark){text{fill:#fff}}.bar-label{fill:#fff}text.chart-title{font-size:12px;font-weight:700}text.chart-subtitle{font-size:7.199999999999999px;font-style:italic}rect.bar{fill:#444}rect.bar.emphasize-bar{fill:#c33}.bar-percent-difference.color-1-of-2,.bar.color-1-of-2,.chart-title .color-1-of-2{fill:#933}@media (prefers-color-scheme:dark){.bar-percent-difference.color-1-of-2,.chart-title .color-1-of-2{fill:#d55}}.bar-percent-difference.color-2-of-2,.bar.color-2-of-2,.chart-title .color-2-of-2{fill:#339}@media (prefers-color-scheme:dark){.bar-percent-difference.color-2-of-2,.chart-title .color-2-of-2{fill:#67d}}.bar.color-2-of-2.emphasize-bar{fill:#33c}.bar-label,.bar-value,text.group{font-size:8px}.bar-label.bar-label-small{font-size:7px}.bar-label.emphasize-bar,.bar-value.emphasize-bar{font-weight:700}rect.error-bar{fill:rgba(0,0,0,.35)}@media (prefers-color-scheme:dark){rect.error-bar{fill:rgba(255,255,255,.35)}}</style><text x="195" y="20" class="chart-title" text-anchor="middle">Rust toolchains: <tspan class="color-2-of-2">custom toolchain</tspan> is fastest</text><text x="195" y="32" class="chart-subtitle" text-anchor="middle">tested on Linux. lower is better.</text><text x="57" y="77" class="group" text-anchor="end"><tspan x="57" dy="0em">build+test</tspan><tspan x="57" dy="1.1em">w/ deps</tspan></text><rect width="187.798" height="10" x="60" y="48" class="bar bar-label-inside-bar"/><rect width="1.863" height=".75" x="246.571" y="52.625" class="error-bar bar-label-inside-bar"/><rect width=".75" height="4" x="245.821" y="51" class="error-bar bar-label-inside-bar"/><rect width=".75" height="4" x="248.434" y="51" class="error-bar bar-label-inside-bar"/><text x="63" y="56" class="bar-label bar-label-inside-bar">Stable</text><text x="323" y="56" class="bar-value bar-label-inside-bar" text-anchor="end">2000ms</text><rect width="188.474" height="10" x="60" y="60" class="bar color-1-of-2 emphasize-bar bar-label-inside-bar"/><rect width="2.205" height=".75" x="247.689" y="64.625" class="error-bar color-1-of-2 emphasize-bar bar-label-inside-bar"/><rect width=".75" height="4" x="246.939" y="63" class="error-bar color-1-of-2 emphasize-bar bar-label-inside-bar"/><rect width=".75" height="4" x="249.894" y="63" class="error-bar color-1-of-2 emphasize-bar bar-label-inside-bar"/><text x="63" y="68" class="bar-label color-1-of-2 emphasize-bar bar-label-inside-bar">Nightly</text><text x="323" y="68" class="bar-value color-1-of-2 emphasize-bar bar-label-inside-bar" text-anchor="end">2007ms</text><rect width="220.758" height="10" x="60" y="72" class="bar bar-label-inside-bar"/><rect width="6.19" height=".75" x="278.435" y="76.625" class="error-bar bar-label-inside-bar"/><rect width=".75" height="4" x="277.685" y="75" class="error-bar bar-label-inside-bar"/><rect width=".75" height="4" x="284.625" y="75" class="error-bar bar-label-inside-bar"/><text x="63" y="80" class="bar-label bar-label-inside-bar">Custom</text><text x="323" y="80" class="bar-value bar-label-inside-bar" text-anchor="end">2351ms</text><text x="323" y="80" class="bar-value bar-percent-difference color-1-of-2" text-anchor="start">(+17%)</text><rect width="187.686" height="10" x="60" y="84" class="bar bar-label-inside-bar"/><rect width="4.383" height=".75" x="245.522" y="88.625" class="error-bar bar-label-inside-bar"/><rect width=".75" height="4" x="244.772" y="87" class="error-bar bar-label-inside-bar"/><rect width=".75" height="4" x="249.905" y="87" class="error-bar bar-label-inside-bar"/><text x="63" y="92" class="bar-label bar-label-inside-bar">Custom+PGO</text><text x="323" y="92" class="bar-value bar-label-inside-bar" text-anchor="end">1999ms</text><text x="323" y="92" class="bar-value bar-percent-difference color-1-of-2" text-anchor="start">(-0.4%)</text><rect width="184.032" height="10" x="60" y="96" class="bar color-2-of-2 emphasize-bar bar-label-inside-bar"/><rect width="2.858" height=".75" x="242.309" y="100.625" class="error-bar color-2-of-2 emphasize-bar bar-label-inside-bar"/><rect width=".75" height="4" x="241.559" y="99" class="error-bar color-2-of-2 emphasize-bar bar-label-inside-bar"/><rect width=".75" height="4" x="245.167" y="99" class="error-bar color-2-of-2 emphasize-bar bar-label-inside-bar"/><text x="63" y="104" class="bar-label color-2-of-2 emphasize-bar bar-label-inside-bar">Custom+PGO+BOLT</text><text x="323" y="104" class="bar-value color-2-of-2 emphasize-bar bar-label-inside-bar" text-anchor="end">1960ms</text><text x="323" y="104" class="bar-value bar-percent-difference color-1-of-2" text-anchor="start">(-2.4%)</text><text x="57" y="144" class="group" text-anchor="end"><tspan x="57" dy="0em">incremental</tspan><tspan x="57" dy="1.1em">lex</tspan></text><rect width="87.885" height="10" x="60" y="115" class="bar bar-label-inside-bar bar-label-small"/><rect width="2.517" height=".75" x="147.083" y="119.625" class="error-bar bar-label-inside-bar bar-label-small"/><rect width=".75" height="4" x="146.333" y="118" class="error-bar bar-label-inside-bar bar-label-small"/><rect width=".75" height="4" x="149.6" y="118" class="error-bar bar-label-inside-bar bar-label-small"/><text x="63" y="123" class="bar-label bar-label-inside-bar bar-label-small">Stable</text><text x="192.176" y="123" class="bar-value bar-label-inside-bar bar-label-small" text-anchor="end">936ms</text><rect width="87.38" height="10" x="60" y="127" class="bar color-1-of-2 emphasize-bar bar-label-inside-bar bar-label-small"/><rect width=".38" height=".75" x="147.34" y="131.625" class="error-bar color-1-of-2 emphasize-bar bar-label-inside-bar bar-label-small"/><rect width=".75" height="4" x="146.59" y="130" class="error-bar color-1-of-2 emphasize-bar bar-label-inside-bar bar-label-small"/><rect width=".75" height="4" x="147.721" y="130" class="error-bar color-1-of-2 emphasize-bar bar-label-inside-bar bar-label-small"/><text x="63" y="135" class="bar-label color-1-of-2 emphasize-bar bar-label-inside-bar bar-label-small">Nightly</text><text x="192.176" y="135" class="bar-value color-1-of-2 emphasize-bar bar-label-inside-bar bar-label-small" text-anchor="end">931ms</text><rect width="91.986" height="10" x="60" y="139" class="bar bar-label-inside-bar bar-label-small"/><rect width="2.474" height=".75" x="151.327" y="143.625" class="error-bar bar-label-inside-bar bar-label-small"/><rect width=".75" height="4" x="150.577" y="142" class="error-bar bar-label-inside-bar bar-label-small"/><rect width=".75" height="4" x="153.801" y="142" class="error-bar bar-label-inside-bar bar-label-small"/><text x="63" y="147" class="bar-label bar-label-inside-bar bar-label-small">Custom</text><text x="192.176" y="147" class="bar-value bar-label-inside-bar bar-label-small" text-anchor="end">980ms</text><text x="192.176" y="147" class="bar-value bar-percent-difference color-1-of-2" text-anchor="start">(+5.3%)</text><rect width="83.435" height="10" x="60" y="151" class="bar bar-label-inside-bar bar-label-small"/><rect width="1.196" height=".75" x="143.015" y="155.625" class="error-bar bar-label-inside-bar bar-label-small"/><rect width=".75" height="4" x="142.265" y="154" class="error-bar bar-label-inside-bar bar-label-small"/><rect width=".75" height="4" x="144.21" y="154" class="error-bar bar-label-inside-bar bar-label-small"/><text x="63" y="159" class="bar-label bar-label-inside-bar bar-label-small">Custom+PGO</text><text x="192.176" y="159" class="bar-value bar-label-inside-bar bar-label-small" text-anchor="end">889ms</text><text x="192.176" y="159" class="bar-value bar-percent-difference color-1-of-2" text-anchor="start">(-4.5%)</text><rect width="82.649" height="10" x="60" y="163" class="bar color-2-of-2 emphasize-bar bar-label-inside-bar bar-label-small"/><rect width="1.065" height=".75" x="141.953" y="167.625" class="error-bar color-2-of-2 emphasize-bar bar-label-inside-bar bar-label-small"/><rect width=".75" height="4" x="141.203" y="166" class="error-bar color-2-of-2 emphasize-bar bar-label-inside-bar bar-label-small"/><rect width=".75" height="4" x="143.018" y="166" class="error-bar color-2-of-2 emphasize-bar bar-label-inside-bar bar-label-small"/><text x="63" y="171" class="bar-label color-2-of-2 emphasize-bar bar-label-inside-bar bar-label-small">Custom+PGO+BOLT</text><text x="192.176" y="171" class="bar-value color-2-of-2 emphasize-bar bar-label-inside-bar bar-label-small" text-anchor="end">881ms</text><text x="192.176" y="171" class="bar-value bar-percent-difference color-1-of-2" text-anchor="start">(-5.4%)</text></svg>