<svg xmlns="http://www.w3.org/2000/svg" xmlns:svg="http://www.w3.org/2000/svg" id="Layer_1" width="31.7" height="31.7" x="0" y="0" enable-background="new 0 0 31.7 28.4" version="1.0" viewBox="0 0 31.7 31.7" xml:space="preserve"><metadata id="metadata39"/><g id="g32" transform="translate(0,1.65)"><polygon id="polygon2" points="27.6 27.2 5.7 27.2 5.7 1 27.6 1 27.6 6.9" style="fill:#924716"/><polygon id="polygon4" points="25.7 27.2 25.7 2.6 27.6 1 27.6 27.2" style="fill:#793812"/><polygon id="polygon6" points="3.5 1 27.3 1 25.4 2.6 3.5 2.6" style="fill:#9f5326"/><g id="g12"><polygon id="polygon8" points="30.5 21.1 29 23.6 31.7 28.4 27.6 27.2 3.7 27.2 3.7 1 8.5 1 12.6 4.2 16.6 2.6 19.1 5.7 23.8 4.9 25.7 10.7 27.6 18.1" style="fill:#80b5e3"/><polygon id="polygon10" points="0 28.4 3.7 27.2 3.7 1 0 0 1.9 4.2 0 7.5 1.9 10.8 0 14.1 1.9 17.3 0 20.6 1.9 23.9" style="fill:#80b5e3"/></g><polygon id="polygon14" points="3.5 1 8.3 1 10.4 2.6 5.4 2.6" style="opacity:.2;fill:#fff"/><g id="g22"><path id="path16" d="m 18.3,13.7 c -0.7,0.6 -2.5,1.9 -4.4,2.3 -2.3,0.5 -3.6,-1.4 -3.1,-3.2 0.5,-2.1 2.8,-3.7 4.8,-3 0.9,0.3 0.6,1.5 0.3,2.1 -0.8,1.5 0.3,1.7 0.8,1.2 1.5,-1.6 2.4,-4.3 -0.2,-5.3 -4,-1.5 -7.3,2.2 -8.4,5.2 -1.7,4.8 2.4,9 7.1,5.8 1.2,-0.8 2.6,-2.2 3.5,-3.4 0.8,-1.2 0.3,-2.3 -0.4,-1.7 z" style="fill:#924716"/><ellipse id="ellipse18" cx="22.4" cy="11.5" rx="1.6" ry="1.1" transform="matrix(0.707,-0.7072,0.7072,0.707,-1.547,19.2306)" style="fill:#924716"/><ellipse id="ellipse20" cx="21.9" cy="15.8" rx="1.6" ry="1.1" transform="matrix(0.707,-0.7072,0.7072,0.707,-4.7882,20.1076)" style="fill:#924716"/></g><polygon id="polygon24" points="3.7 1 5.7 2.6 5.7 25.5 3.7 27.2" style="opacity:.2;fill:#fff"/><g id="g30" style="opacity:.2"><polygon id="polygon26" points="5.7 25.5 25.7 25.5 27.6 27.2 3.7 27.2" style="fill:#342565"/><polygon id="polygon28" points="25.7 10.7 27.6 18.1 27.6 27.2 25.7 25.5" style="fill:#342565"/></g></g></svg>