<svg xmlns="http://www.w3.org/2000/svg" xmlns:svg="http://www.w3.org/2000/svg" xmlns:xlink="http://www.w3.org/1999/xlink" id="svg909" width="40" height="40" version="1.1" viewBox="0 0 40 40"><metadata id="metadata915"/><linearGradient id="a"><stop id="stop834" offset="0" stop-color="#2a7fff"/><stop id="stop836" offset="1" stop-color="#0cf"/></linearGradient><linearGradient id="b" x1="80.723" x2="141.405" y1="192.156" y2="252.838" gradientUnits="userSpaceOnUse"><stop id="stop839" offset="0" stop-color="#0055d4"/><stop id="stop841" offset="1" stop-color="#06f" stop-opacity="0"/></linearGradient><linearGradient id="c" x1="61.163" x2="64.928" y1="105.11" y2="109.045" gradientUnits="userSpaceOnUse"><stop id="stop844" offset="0" stop-color="#e6e6e6"/><stop id="stop846" offset="1" stop-color="#b3b3b3"/></linearGradient><linearGradient id="d" x1="77.167" x2="64.372" y1="115.715" y2="112.004" gradientUnits="userSpaceOnUse"><stop id="stop849" offset="0" stop-color="#0cf"/><stop id="stop851" offset="1" stop-color="#2a7fff"/></linearGradient><linearGradient id="e" x1="68.707" x2="75.819" y1="113.065" y2="117.913" gradientUnits="userSpaceOnUse" xlink:href="#a"/><linearGradient id="f"><stop id="stop855" offset="0" stop-color="#fff"/><stop id="stop857" offset="1" stop-color="#b3b3b3"/></linearGradient><linearGradient id="g" x1="77.401" x2="68.67" y1="106.368" y2="120.358" gradientUnits="userSpaceOnUse" xlink:href="#f"/><linearGradient id="h" x1="68.229" x2="68.164" y1="112.732" y2="118.555" gradientUnits="userSpaceOnUse"><stop id="stop861" offset="0" stop-color="#b3b3b3"/><stop id="stop863" offset="1" stop-color="#fff"/></linearGradient><linearGradient id="i" x1="63.367" x2="71.136" y1="106.865" y2="104.89" gradientUnits="userSpaceOnUse" xlink:href="#f"/><linearGradient id="j" x1="66.951" x2="66.336" y1="104.461" y2="109.668" gradientUnits="userSpaceOnUse"><stop id="stop867" offset="0" stop-color="#ccc"/><stop id="stop869" offset="1" stop-color="#b3b3b3"/></linearGradient><linearGradient id="k" x1="62.961" x2="77.488" y1="115.883" y2="107.314" gradientUnits="userSpaceOnUse"><stop id="stop872" offset="0" stop-color="#e6e6e6"/><stop id="stop874" offset="1" stop-color="#fff"/></linearGradient><linearGradient id="l" x1="220.306" x2="54.439" y1="207.919" y2="42.052" gradientTransform="matrix(0.44648217,0,0,0.43479451,59.664951,148.26025)" gradientUnits="userSpaceOnUse" xlink:href="#a"/><linearGradient id="m" x1="68.21" x2="148.521" y1="177.751" y2="258.061" gradientUnits="userSpaceOnUse"><stop id="stop878" offset="0" stop-color="#59f"/><stop id="stop880" offset="1" stop-color="#06f"/></linearGradient><g id="g907" transform="matrix(0.35834457,0,0,0.35834465,-18.588903,-57.834451)"><circle id="circle883" cx="107.687" cy="217.206" r="55.812" style="fill:url(#m);stroke-width:.046091"/><ellipse id="ellipse885" cx="107.687" cy="215.745" rx="55.812" ry="54.351" style="fill:url(#l);stroke-width:.045484"/><path id="path887" d="m 104.42761,173.43884 c -3.17498,21.38886 -11.196398,24.89739 -26.927573,45.50887 l 4.506763,10.66624 38.2124,38.21262 a 55.812184,55.812184 0 0 0 43.27959,-50.62107 l -42.76116,-42.76116 z" style="fill:url(#b);stroke-width:.046091"/><g id="g905" transform="matrix(4.5475751,0,0,4.6489837,-203.94378,-313.78768)" style="stroke-width:.26458299"><path id="path889" d="m 65.428762,109.91943 c -0.79474,-2.58086 -5.285936,-1.9546 -6.036655,-2.01063 0.842596,-0.40914 1.604061,-0.74639 3.341118,-1.97728 3.346321,-2.37122 6.889189,-1.85409 8.663362,-0.91242 -4.85033,0.18036 -3.926305,2.76518 -3.211896,4.12714 -0.908518,0.25814 -2.342683,0.64782 -2.755929,0.77319 z" style="fill:url(#c)"/><path id="path891" d="m 77.401381,106.36805 c -1.746608,2.25673 -4.650524,5.30573 -7.828693,5.70736 -3.17817,0.40163 -6.208039,-0.0433 -6.909882,2.27202 -0.64633,2.1322 1.626883,4.12293 3.984589,3.64314 2.518769,-0.51257 1.974803,-3.30514 0.597137,-5.20681 1.046467,-0.0587 0.851808,-0.0435 2.626388,-0.131 2.645109,2.20549 3.521857,2.8343 8.143023,6.05209 -3.561162,-0.36484 -4.857257,-0.69982 -7.41144,-2.19429 0.661668,1.62462 2.075907,5.31186 2.382248,8.17285 -1.47315,-2.07065 -2.031632,-2.83161 -4.314667,-4.32544 -2.924418,-1.9135 -5.29286,-1.97828 -6.663677,-4.79745 -1.367857,-2.81308 0.442686,-4.83945 3.682518,-5.71701 4.629957,-1.2541 8.619281,-2.4431 11.712456,-3.47546 z" style="fill:url(#d)"/><path id="path893" d="m 67.244532,112.78376 c 1.046467,-0.0587 0.851808,-0.0435 2.626388,-0.131 2.645109,2.20549 3.521857,2.8343 8.143023,6.05209 -4.644893,-0.32503 -8.159344,-1.66506 -10.769411,-5.92109 z" style="fill:url(#e)"/><path id="path895" d="m 77.401381,106.36805 c -1.746608,2.25673 -4.650524,5.30573 -7.828693,5.70736 -3.17817,0.40163 -6.208039,-0.0433 -6.909882,2.27202 -0.64633,2.1322 1.626883,4.12293 3.984589,3.64314 2.518769,-0.51257 1.974803,-3.30514 0.597137,-5.20681 1.046467,-0.0587 0.851808,-0.0435 2.626388,-0.131 2.645109,2.20549 3.521857,2.8343 8.143023,6.05209 -3.561162,-0.36484 -4.857257,-0.69982 -7.41144,-2.19429 0.661668,1.62462 2.075907,5.31186 2.382248,8.17285 -1.47315,-2.07065 -2.031632,-2.83161 -4.314667,-4.32544 -2.924418,-1.9135 -5.29286,-1.97828 -6.663677,-4.79745 -1.367857,-2.81308 0.442686,-4.83945 3.682518,-5.71701 4.629957,-1.2541 8.619281,-2.4431 11.712456,-3.47546 z" style="fill:url(#g)"/><path id="path897" d="m 67.244532,112.78376 c 1.046467,-0.0587 0.851808,-0.0435 2.626388,-0.131 2.645109,2.20549 3.521857,2.8343 8.143023,6.05209 -4.644893,-0.32503 -8.159344,-1.66506 -10.769411,-5.92109 z" style="fill:url(#h)"/><path id="path899" d="m 59.392107,107.9088 c 0.842596,-0.40914 1.604061,-0.74639 3.341118,-1.97728 3.346321,-2.37122 6.889189,-1.85409 8.663362,-0.91242 -4.85033,0.18036 -4.225378,1.1257 -4.243278,1.86679 -3.222572,-0.66446 -4.163494,0.2396 -7.761202,1.02291 z" style="fill:url(#i)"/><path id="path901" d="m 71.396587,105.0191 c -4.85033,0.18036 -3.926305,2.76518 -3.211896,4.12714 -0.566006,0.16082 -1.179475,0.34403 -1.936109,0.53991 -3.052938,-5.32116 2.656266,-6.01341 5.148005,-4.66705 z" style="fill:url(#j)"/><path id="path903" d="m 62.879799,116.88614 c -2.373486,-2.98949 -1.93525,-5.72962 2.712379,-7.1533 4.586439,-1.40494 8.716028,-2.33243 11.809203,-3.36479 -8.347338,3.11114 -18.799839,5.18999 -14.521582,10.51809 z" style="fill:url(#k)"/></g></g></svg>